<svg width="350" height="350" version="1.1" xmlns="http://www.w3.org/2000/svg" desc="Created with imagetracer.js version 0.2.1" ><path fill="rgb(0,0,0)" stroke="rgb(0,0,0)" stroke-width="1" opacity="0" d="M 0 0 L 350 0 L 350 350 L 0 350 L 0 0 Z M 194 5 L 188 7 L 183 12 L 175 32 L 157 110 L 151 110 L 132 114 L 126 114 L 101 119 L 90 120 L 84 122 L 73 123 L 67 125 L 62 125 L 56 127 L 51 127 L 26 133 L 15 138 L 10 145 L 12 152 L 21 159 L 89 192 L 132 218 L 104 322 L 103 325 L 95 334 L 94 341 L 101 345 L 104 344 L 161 279 L 186 253 L 244 295 L 255 301 L 260 302 L 267 300 L 270 296 L 271 291 L 268 270 L 253 207 L 251 194 L 309 144 L 330 123 L 340 106 Q 341 99 338 96 Q 333 89 325 87 L 294 88 L 293 89 L 272 91 L 271 92 L 229 98 L 214 38 L 205 14 L 198 6 L 194 5 Z " /><path fill="rgb(0,0,0)" stroke="rgb(0,0,0)" stroke-width="1" opacity="0" d="M 193.5 22 L 195 28 L 190.5 30 L 191 28.5 L 193.5 22 Z " /><path fill="rgb(0,0,0)" stroke="rgb(0,0,0)" stroke-width="1" opacity="0" d="M 199 41 Q 202.3 39.7 201 44.5 L 205 55.5 L 215 100 L 211 101 L 208.5 96 L 204.5 94 L 194 93.5 L 208 84.5 L 209 75.5 L 203.5 71 Q 197.4 72.1 195 69.5 L 201 64.5 L 202 57.5 L 199.5 54 L 196 53 L 199 47.5 L 199 41 Z " /><path fill="rgb(0,0,0)" stroke="rgb(0,0,0)" stroke-width="1" opacity="0" d="M 177 82 L 184 83.5 L 176.5 88 L 176 86.5 L 177 82 Z " /><path fill="rgb(0,0,0)" stroke="rgb(0,0,0)" stroke-width="1" opacity="0" d="M 172 104 L 176 105.5 L 172 107 L 172 104 Z " /><path fill="rgb(0,0,0)" stroke="rgb(0,0,0)" stroke-width="1" opacity="0" d="M 278.5 104 Q 282.9 102.5 282 105.5 L 275.5 108 L 273 110.5 Q 273.7 113.1 271 112 L 268.5 108 Q 260.8 106.3 259 110.5 L 257 120.5 L 258 123 L 250.5 125 L 249 122.5 L 248 114.5 L 244 109.5 L 270.5 106 L 271.5 105 L 277.5 105 L 278.5 104 Z " /><path fill="rgb(0,0,0)" stroke="rgb(0,0,0)" stroke-width="1" opacity="0" d="M 232 111 Q 235.7 109.5 235 112.5 L 233.5 117 L 232 111 Z " /><path fill="rgb(0,0,0)" stroke="rgb(0,0,0)" stroke-width="1" opacity="0" d="M 218.5 113 L 219 115 L 216 114.5 L 218.5 113 Z " /><path fill="rgb(0,0,0)" stroke="rgb(0,0,0)" stroke-width="1" opacity="0" d="M 307.5 119 L 312 121.5 L 306 126.5 L 307.5 119 Z " /><path fill="rgb(0,0,0)" stroke="rgb(0,0,0)" stroke-width="1" opacity="0" d="M 168 121 L 172 122.5 L 173.5 125 L 177.5 127 L 193 128.5 L 168.5 137 L 164.5 140 L 164 138.5 L 168 121 Z " /><path fill="rgb(0,0,0)" stroke="rgb(0,0,0)" stroke-width="1" opacity="0" d="M 150.5 124 L 154 124.5 L 152 131 L 147.5 130 L 141 135.5 L 140.5 137 Q 138.7 133.8 133.5 134 L 128 137.5 L 125.5 142 Q 126.1 133.9 121.5 131 L 119 129.5 L 150.5 124 Z " /><path fill="rgb(0,0,0)" stroke="rgb(0,0,0)" stroke-width="1" opacity="0" d="M 112.5 130 L 117 130.5 L 110.5 134 L 109 131.5 L 112.5 130 Z " /><path fill="rgb(0,0,0)" stroke="rgb(0,0,0)" stroke-width="1" opacity="0" d="M 221.5 132 Q 224.1 131.2 223 134.5 L 235 184.5 L 235 189.5 L 229 193 L 227.5 190 Q 223.5 186.5 214.5 188 L 212.5 189 L 212.5 188 L 218 183.5 Q 219.1 175.9 214.5 174 L 202 172.5 Q 215.6 169.1 225 161.5 L 226 156.5 L 221.5 151 L 217.5 150 L 215.5 151 L 215.5 150 Q 221.3 148.8 224 144.5 Q 225.1 136.9 220.5 135 L 218 133.5 L 221.5 132 Z " /><path fill="rgb(0,0,0)" stroke="rgb(0,0,0)" stroke-width="1" opacity="0" d="M 294.5 132 L 299 133.5 L 282.5 148 L 283 146.5 L 284 138 L 292 137 L 294.5 132 Z " /><path fill="rgb(0,0,0)" stroke="rgb(0,0,0)" stroke-width="1" opacity="0" d="M 94.5 133 L 95 134.5 L 93 135.5 L 94.5 133 Z " /><path fill="rgb(0,0,0)" stroke="rgb(0,0,0)" stroke-width="1" opacity="0" d="M 162.5 149 L 163 151 L 169 153.5 L 164 156.5 L 162 162.5 L 166.5 168 L 172 169.5 L 156.5 176 L 157 174.5 L 162.5 149 Z " /><path fill="rgb(0,0,0)" stroke="rgb(0,0,0)" stroke-width="1" opacity="0" d="M 270.5 150 Q 272.2 152.8 277.5 152 L 279 151.5 L 269.5 160 L 269 156.5 L 270.5 150 Z " /><path fill="rgb(0,0,0)" stroke="rgb(0,0,0)" stroke-width="1" opacity="0" d="M 259.5 165 L 262 166.5 L 258.5 169 L 259 167.5 L 259.5 165 Z " /><path fill="rgb(0,0,0)" stroke="rgb(0,0,0)" stroke-width="1" opacity="0" d="M 76.5 168 L 80 172.5 L 78.5 172 L 75 171 L 76.5 168 Z " /><path fill="rgb(0,0,0)" stroke="rgb(0,0,0)" stroke-width="1" opacity="0" d="M 92.5 168 L 96.5 173 Q 103 174.5 104.5 171 Q 103.8 180.2 109.5 183 Q 116 184.5 117.5 181 L 118 184.5 L 117 185.5 L 117 192 L 83 174.5 Q 90.3 174.8 92 169.5 L 92.5 168 Z " /><path fill="rgb(0,0,0)" stroke="rgb(0,0,0)" stroke-width="1" opacity="0" d="M 246.5 171 Q 248 174 253 173.5 L 247 178.5 L 246.5 171 Z " /><path fill="rgb(0,0,0)" stroke="rgb(0,0,0)" stroke-width="1" opacity="0" d="M 132 189 L 138 191 L 134.5 203 L 127 197.5 Q 131.8 195 132 189 Z " /><path fill="rgb(0,0,0)" stroke="rgb(0,0,0)" stroke-width="1" opacity="0" d="M 153.5 190 L 154.5 191 L 163 191.5 L 159 193 L 157 196.5 L 157 201.5 L 159.5 205 L 168.5 207 L 171.5 206 L 171.5 207 Q 160.9 208.9 155.5 216 L 147 210.5 L 150 205.5 L 153.5 190 Z " /><path fill="rgb(0,0,0)" stroke="rgb(0,0,0)" stroke-width="1" opacity="0" d="M 215.5 206 L 214.5 208 L 186.5 234 L 183.5 235 L 182 232 Q 188.8 231.5 192 226.5 L 193 220.5 L 191 217 L 188 215.5 L 215.5 206 Z " /><path fill="rgb(0,0,0)" stroke="rgb(0,0,0)" stroke-width="1" opacity="0" d="M 241.5 219 L 251 257 L 248 255.5 L 249 251.5 L 244 245.5 Q 246.3 244.3 245 239.5 L 240.5 234 Q 238.3 234.8 239 232.5 Q 241.3 231.3 240 226.5 L 238 222.5 L 241.5 219 Z " /><path fill="rgb(0,0,0)" stroke="rgb(0,0,0)" stroke-width="1" opacity="0" d="M 144.5 225 L 149 227.5 L 142.5 231 L 143 229.5 Q 142.3 225.8 144.5 225 Z " /><path fill="rgb(0,0,0)" stroke="rgb(0,0,0)" stroke-width="1" opacity="0" d="M 139.5 242 L 140.5 244 Q 137.7 244.7 139.5 242 Z " /><path fill="rgb(0,0,0)" stroke="rgb(0,0,0)" stroke-width="1" opacity="0" d="M 204.5 247 Q 207.4 249.6 213.5 249 Q 214.7 252.7 219 252 Q 217.3 260 222.5 262 L 224 262.5 L 222.5 263 L 203 248.5 L 204.5 247 Z " /><path fill="rgb(0,0,0)" stroke="rgb(0,0,0)" stroke-width="1" opacity="0" d="M 169.5 249 L 163 256.5 L 161.5 259 Q 159.3 258.3 160 260.5 L 143.5 278 L 144 276.5 Q 145.3 268.7 141 266.5 L 154.5 261 L 159 256.5 Q 157.1 251.1 160.5 252 L 169.5 249 Z " /><path fill="rgb(0,0,0)" stroke="rgb(0,0,0)" stroke-width="1" opacity="0" d="M 125 295 L 128 295.5 L 124.5 300 L 124 298.5 L 125 295 Z " /><path fill="rgb(240,165,165)" stroke="rgb(240,165,165)" stroke-width="1" opacity="0.8705882352941177" d="M 192.5 6 L 195 6.5 L 192.5 7 L 192.5 6 Z " /><path fill="rgb(240,165,165)" stroke="rgb(240,165,165)" stroke-width="1" opacity="0.8705882352941177" d="M 187.5 8 L 184.5 12 L 187.5 8 Z " /><path fill="rgb(240,165,165)" stroke="rgb(240,165,165)" stroke-width="1" opacity="0.8705882352941177" d="M 198.5 8 L 202.5 13 L 198.5 8 Z " /><path fill="rgb(240,165,165)" stroke="rgb(240,165,165)" stroke-width="1" opacity="0.8705882352941177" d="M 192.5 20 L 195 21.5 L 193.5 21 L 192.5 20 Z " /><path fill="rgb(240,165,165)" stroke="rgb(240,165,165)" stroke-width="1" opacity="0.8705882352941177" d="M 196.5 26 L 197 27.5 L 195 28.5 L 196.5 26 Z " /><path fill="rgb(240,165,165)" stroke="rgb(240,165,165)" stroke-width="1" opacity="0.8705882352941177" d="M 193.5 29 L 192.5 31 L 193.5 29 Z " /><path fill="rgb(240,165,165)" stroke="rgb(240,165,165)" stroke-width="1" opacity="0.8705882352941177" d="M 188.5 31 L 191 31.5 L 188 33 L 188.5 31 Z " /><path fill="rgb(240,165,165)" stroke="rgb(240,165,165)" stroke-width="1" opacity="0.8705882352941177" d="M 172.5 46 L 173 48.5 L 172 48.5 L 172.5 46 Z " /><path fill="rgb(240,165,165)" stroke="rgb(240,165,165)" stroke-width="1" opacity="0.8705882352941177" d="M 195.5 50 L 194.5 53 L 196 53.5 L 194.5 54 Q 191 52 195.5 50 Z " /><path fill="rgb(240,165,165)" stroke="rgb(240,165,165)" stroke-width="1" opacity="0.8705882352941177" d="M 169.5 59 L 170 61.5 L 169 61.5 L 169.5 59 Z " /><path fill="rgb(240,165,165)" stroke="rgb(240,165,165)" stroke-width="1" opacity="0.8705882352941177" d="M 199.5 64 L 197.5 67 L 199.5 64 Z " /><path fill="rgb(240,165,165)" stroke="rgb(240,165,165)" stroke-width="1" opacity="0.8705882352941177" d="M 195.5 67 L 194.5 69 L 195.5 67 Z " /><path fill="rgb(240,165,165)" stroke="rgb(240,165,165)" stroke-width="1" opacity="0.8705882352941177" d="M 192.5 69 L 192.5 71 L 198 71.5 L 191 72 L 192.5 69 Z " /><path fill="rgb(240,165,165)" stroke="rgb(240,165,165)" stroke-width="1" opacity="0.8705882352941177" d="M 209.5 69 L 210 71.5 L 209 71.5 L 209.5 69 Z " /><path fill="rgb(240,165,165)" stroke="rgb(240,165,165)" stroke-width="1" opacity="0.8705882352941177" d="M 166.5 72 L 167 74.5 L 166 74.5 L 166.5 72 Z " /><path fill="rgb(240,165,165)" stroke="rgb(240,165,165)" stroke-width="1" opacity="0.8705882352941177" d="M 205.5 73 L 206.5 75 L 205.5 73 Z " /><path fill="rgb(240,165,165)" stroke="rgb(240,165,165)" stroke-width="1" opacity="0.8705882352941177" d="M 183.5 82 Q 187.9 80.5 187 83.5 L 185 84.5 L 185.5 83 Q 182.5 83.5 183.5 82 Z " /><path fill="rgb(240,165,165)" stroke="rgb(240,165,165)" stroke-width="1" opacity="0.8705882352941177" d="M 163.5 85 L 164 87.5 L 163 87.5 L 163.5 85 Z " /><path fill="rgb(240,165,165)" stroke="rgb(240,165,165)" stroke-width="1" opacity="0.8705882352941177" d="M 203.5 86 L 202.5 88 L 203.5 86 Z " /><path fill="rgb(240,165,165)" stroke="rgb(240,165,165)" stroke-width="1" opacity="0.8705882352941177" d="M 174.5 88 L 175.5 90 L 177 89.5 L 174 91 L 174.5 88 Z " /><path fill="rgb(240,165,165)" stroke="rgb(240,165,165)" stroke-width="1" opacity="0.8705882352941177" d="M 200.5 88 L 199.5 90 L 200.5 88 Z " /><path fill="rgb(240,165,165)" stroke="rgb(240,165,165)" stroke-width="1" opacity="0.8705882352941177" d="M 302.5 88 L 309 88.5 L 302.5 89 L 302.5 88 Z " /><path fill="rgb(240,165,165)" stroke="rgb(240,165,165)" stroke-width="1" opacity="0.8705882352941177" d="M 292.5 89 L 297 89.5 L 292.5 90 L 292.5 89 Z " /><path fill="rgb(240,165,165)" stroke="rgb(240,165,165)" stroke-width="1" opacity="0.8705882352941177" d="M 214.5 90 L 215 92.5 L 214 92.5 L 214.5 90 Z " /><path fill="rgb(240,165,165)" stroke="rgb(240,165,165)" stroke-width="1" opacity="0.8705882352941177" d="M 284.5 90 L 288 90.5 L 284.5 91 L 284.5 90 Z " /><path fill="rgb(240,165,165)" stroke="rgb(240,165,165)" stroke-width="1" opacity="0.8705882352941177" d="M 277.5 91 L 281 91.5 L 277.5 92 L 277.5 91 Z " /><path fill="rgb(240,165,165)" stroke="rgb(240,165,165)" stroke-width="1" opacity="0.8705882352941177" d="M 270.5 92 L 274 92.5 L 270.5 93 L 270.5 92 Z " /><path fill="rgb(240,165,165)" stroke="rgb(240,165,165)" stroke-width="1" opacity="0.8705882352941177" d="M 333.5 92 L 336.5 96 L 333.5 92 Z " /><path fill="rgb(240,165,165)" stroke="rgb(240,165,165)" stroke-width="1" opacity="0.8705882352941177" d="M 264.5 93 L 267 93.5 L 264.5 94 L 264.5 93 Z " /><path fill="rgb(240,165,165)" stroke="rgb(240,165,165)" stroke-width="1" opacity="0.8705882352941177" d="M 161.5 94 L 162 96.5 L 161 96.5 L 161.5 94 Z " /><path fill="rgb(240,165,165)" stroke="rgb(240,165,165)" stroke-width="1" opacity="0.8705882352941177" d="M 258.5 94 L 261 94.5 L 258.5 95 L 258.5 94 Z " /><path fill="rgb(240,165,165)" stroke="rgb(240,165,165)" stroke-width="1" opacity="0.8705882352941177" d="M 202.5 95 L 205 95.5 L 202.5 96 L 202.5 95 Z " /><path fill="rgb(240,165,165)" stroke="rgb(240,165,165)" stroke-width="1" opacity="0.8705882352941177" d="M 252.5 95 L 255 95.5 L 252.5 96 L 252.5 95 Z " /><path fill="rgb(240,165,165)" stroke="rgb(240,165,165)" stroke-width="1" opacity="0.8705882352941177" d="M 245.5 96 L 249 96.5 L 245.5 97 L 245.5 96 Z " /><path fill="rgb(240,165,165)" stroke="rgb(240,165,165)" stroke-width="1" opacity="0.8705882352941177" d="M 239.5 97 L 242 97.5 L 239.5 98 L 239.5 97 Z " /><path fill="rgb(240,165,165)" stroke="rgb(240,165,165)" stroke-width="1" opacity="0.8705882352941177" d="M 216.5 98 L 217 100.5 L 216 100.5 L 216.5 98 Z " /><path fill="rgb(240,165,165)" stroke="rgb(240,165,165)" stroke-width="1" opacity="0.8705882352941177" d="M 232.5 98 L 235 98.5 L 232.5 99 L 232.5 98 Z " /><path fill="rgb(240,165,165)" stroke="rgb(240,165,165)" stroke-width="1" opacity="0.8705882352941177" d="M 338.5 100 L 339 105.5 L 338 105.5 L 338.5 100 Z " /><path fill="rgb(240,165,165)" stroke="rgb(240,165,165)" stroke-width="1" opacity="0.8705882352941177" d="M 212.5 101 L 215 101.5 L 212.5 102 L 212.5 101 Z " /><path fill="rgb(240,165,165)" stroke="rgb(240,165,165)" stroke-width="1" opacity="0.8705882352941177" d="M 296.5 101 L 297 103.5 L 295 104.5 L 296.5 101 Z " /><path fill="rgb(240,165,165)" stroke="rgb(240,165,165)" stroke-width="1" opacity="0.8705882352941177" d="M 325 101 Q 328 99.8 327 103.5 L 325 102.5 L 325 101 Z " /><path fill="rgb(240,165,165)" stroke="rgb(240,165,165)" stroke-width="1" opacity="0.8705882352941177" d="M 171 102 L 173 102.5 L 171 103.5 L 171 102 Z " /><path fill="rgb(240,165,165)" stroke="rgb(240,165,165)" stroke-width="1" opacity="0.8705882352941177" d="M 282.5 102 Q 284.8 101.3 284 103.5 L 282.5 102 Z " /><path fill="rgb(240,165,165)" stroke="rgb(240,165,165)" stroke-width="1" opacity="0.8705882352941177" d="M 275.5 103 L 279 103.5 L 275.5 104 L 275.5 103 Z " /><path fill="rgb(240,165,165)" stroke="rgb(240,165,165)" stroke-width="1" opacity="0.8705882352941177" d="M 268.5 104 L 272 104.5 L 268.5 105 L 268.5 104 Z " /><path fill="rgb(240,165,165)" stroke="rgb(240,165,165)" stroke-width="1" opacity="0.8705882352941177" d="M 178.5 105 Q 181.8 103.9 181 106.5 L 179.5 106 L 178.5 105 Z " /><path fill="rgb(240,165,165)" stroke="rgb(240,165,165)" stroke-width="1" opacity="0.8705882352941177" d="M 261.5 105 L 265 105.5 L 261.5 106 L 261.5 105 Z " /><path fill="rgb(240,165,165)" stroke="rgb(240,165,165)" stroke-width="1" opacity="0.8705882352941177" d="M 282.5 105 L 283 107.5 L 280.5 109 L 280.5 108 Q 283.4 108.7 282.5 105 Z " /><path fill="rgb(240,165,165)" stroke="rgb(240,165,165)" stroke-width="1" opacity="0.8705882352941177" d="M 255.5 106 L 258 106.5 L 255.5 107 L 255.5 106 Z " /><path fill="rgb(240,165,165)" stroke="rgb(240,165,165)" stroke-width="1" opacity="0.8705882352941177" d="M 158.5 107 L 159 109.5 L 156.5 111 L 156.5 110 Q 159.4 110.7 158.5 107 Z " /><path fill="rgb(240,165,165)" stroke="rgb(240,165,165)" stroke-width="1" opacity="0.8705882352941177" d="M 174.5 107 L 177 107.5 L 174.5 108 L 174.5 107 Z " /><path fill="rgb(240,165,165)" stroke="rgb(240,165,165)" stroke-width="1" opacity="0.8705882352941177" d="M 248.5 107 L 251 107.5 L 248.5 108 L 248.5 107 Z " /><path fill="rgb(240,165,165)" stroke="rgb(240,165,165)" stroke-width="1" opacity="0.8705882352941177" d="M 241.5 108 L 245 108.5 L 238.5 111 L 235 109.5 L 241.5 108 Z " /><path fill="rgb(240,165,165)" stroke="rgb(240,165,165)" stroke-width="1" opacity="0.8705882352941177" d="M 261.5 109 L 263 109.5 L 260.5 111 L 261.5 109 Z " /><path fill="rgb(240,165,165)" stroke="rgb(240,165,165)" stroke-width="1" opacity="0.8705882352941177" d="M 268.5 109 L 269.5 111 L 268.5 109 Z " /><path fill="rgb(240,165,165)" stroke="rgb(240,165,165)" stroke-width="1" opacity="0.8705882352941177" d="M 275.5 109 L 274.5 111 L 275.5 109 Z " /><path fill="rgb(240,165,165)" stroke="rgb(240,165,165)" stroke-width="1" opacity="0.8705882352941177" d="M 150.5 111 L 153 111.5 L 150.5 112 L 150.5 111 Z " /><path fill="rgb(240,165,165)" stroke="rgb(240,165,165)" stroke-width="1" opacity="0.8705882352941177" d="M 143.5 112 L 147 112.5 L 143.5 113 L 143.5 112 Z " /><path fill="rgb(240,165,165)" stroke="rgb(240,165,165)" stroke-width="1" opacity="0.8705882352941177" d="M 215.5 112 L 220 112.5 L 215.5 113 L 215.5 112 Z " /><path fill="rgb(240,165,165)" stroke="rgb(240,165,165)" stroke-width="1" opacity="0.8705882352941177" d="M 137.5 113 L 140 113.5 L 137.5 114 L 137.5 113 Z " /><path fill="rgb(240,165,165)" stroke="rgb(240,165,165)" stroke-width="1" opacity="0.8705882352941177" d="M 209.5 113 L 212 113.5 L 209.5 114 L 209.5 113 Z " /><path fill="rgb(240,165,165)" stroke="rgb(240,165,165)" stroke-width="1" opacity="0.8705882352941177" d="M 131.5 114 L 134 114.5 L 131.5 115 L 131.5 114 Z " /><path fill="rgb(240,165,165)" stroke="rgb(240,165,165)" stroke-width="1" opacity="0.8705882352941177" d="M 203 114 L 206.5 115 L 218 115.5 L 203 116 L 203 114 Z " /><path fill="rgb(240,165,165)" stroke="rgb(240,165,165)" stroke-width="1" opacity="0.8705882352941177" d="M 271.5 114 Q 273.8 113.3 273 115.5 L 271.5 114 Z " /><path fill="rgb(240,165,165)" stroke="rgb(240,165,165)" stroke-width="1" opacity="0.8705882352941177" d="M 125.5 115 L 128 115.5 L 125.5 116 L 125.5 115 Z " /><path fill="rgb(240,165,165)" stroke="rgb(240,165,165)" stroke-width="1" opacity="0.8705882352941177" d="M 119.5 116 L 122 116.5 L 119.5 117 L 119.5 116 Z " /><path fill="rgb(240,165,165)" stroke="rgb(240,165,165)" stroke-width="1" opacity="0.8705882352941177" d="M 113.5 117 L 116 117.5 L 113.5 118 L 113.5 117 Z " /><path fill="rgb(240,165,165)" stroke="rgb(240,165,165)" stroke-width="1" opacity="0.8705882352941177" d="M 258.5 117 L 259 125 L 253 124.5 L 258 124 L 258.5 117 Z " /><path fill="rgb(240,165,165)" stroke="rgb(240,165,165)" stroke-width="1" opacity="0.8705882352941177" d="M 306.5 117 L 309 118.5 L 307.5 118 L 306.5 117 Z " /><path fill="rgb(240,165,165)" stroke="rgb(240,165,165)" stroke-width="1" opacity="0.8705882352941177" d="M 107.5 118 L 110 118.5 L 107.5 119 L 107.5 118 Z " /><path fill="rgb(240,165,165)" stroke="rgb(240,165,165)" stroke-width="1" opacity="0.8705882352941177" d="M 331.5 118 L 329.5 121 L 331.5 118 Z " /><path fill="rgb(240,165,165)" stroke="rgb(240,165,165)" stroke-width="1" opacity="0.8705882352941177" d="M 101.5 119 L 104 119.5 L 101.5 120 L 101.5 119 Z " /><path fill="rgb(240,165,165)" stroke="rgb(240,165,165)" stroke-width="1" opacity="0.8705882352941177" d="M 95.5 120 L 98 120.5 L 95.5 121 L 95.5 120 Z " /><path fill="rgb(240,165,165)" stroke="rgb(240,165,165)" stroke-width="1" opacity="0.8705882352941177" d="M 171.5 120 L 172.5 122 L 171.5 120 Z " /><path fill="rgb(240,165,165)" stroke="rgb(240,165,165)" stroke-width="1" opacity="0.8705882352941177" d="M 89.5 121 L 92 121.5 L 89.5 122 L 89.5 121 Z " /><path fill="rgb(240,165,165)" stroke="rgb(240,165,165)" stroke-width="1" opacity="0.8705882352941177" d="M 313.5 121 L 305.5 130 L 301.5 132 L 301.5 131 L 304 129.5 L 304.5 128 L 305.5 129 L 313.5 121 Z " /><path fill="rgb(240,165,165)" stroke="rgb(240,165,165)" stroke-width="1" opacity="0.8705882352941177" d="M 83.5 122 L 86 122.5 L 83.5 123 L 83.5 122 Z " /><path fill="rgb(240,165,165)" stroke="rgb(240,165,165)" stroke-width="1" opacity="0.8705882352941177" d="M 77.5 123 L 80 123.5 L 77.5 124 L 77.5 123 Z " /><path fill="rgb(240,165,165)" stroke="rgb(240,165,165)" stroke-width="1" opacity="0.8705882352941177" d="M 147.5 123 L 150 123.5 L 147.5 124 L 147.5 123 Z " /><path fill="rgb(240,165,165)" stroke="rgb(240,165,165)" stroke-width="1" opacity="0.8705882352941177" d="M 327.5 123 L 310.5 141 L 327.5 123 Z " /><path fill="rgb(240,165,165)" stroke="rgb(240,165,165)" stroke-width="1" opacity="0.8705882352941177" d="M 72.5 124 L 75 124.5 L 72.5 125 L 72.5 124 Z " /><path fill="rgb(240,165,165)" stroke="rgb(240,165,165)" stroke-width="1" opacity="0.8705882352941177" d="M 141.5 124 L 144 124.5 L 141.5 125 L 141.5 124 Z " /><path fill="rgb(240,165,165)" stroke="rgb(240,165,165)" stroke-width="1" opacity="0.8705882352941177" d="M 66.5 125 L 69 125.5 L 66.5 126 L 66.5 125 Z " /><path fill="rgb(240,165,165)" stroke="rgb(240,165,165)" stroke-width="1" opacity="0.8705882352941177" d="M 135.5 125 L 138 125.5 L 135.5 126 L 135.5 125 Z " /><path fill="rgb(240,165,165)" stroke="rgb(240,165,165)" stroke-width="1" opacity="0.8705882352941177" d="M 61.5 126 L 64 126.5 L 61.5 127 L 61.5 126 Z " /><path fill="rgb(240,165,165)" stroke="rgb(240,165,165)" stroke-width="1" opacity="0.8705882352941177" d="M 129.5 126 L 132 126.5 L 129.5 127 L 129.5 126 Z " /><path fill="rgb(240,165,165)" stroke="rgb(240,165,165)" stroke-width="1" opacity="0.8705882352941177" d="M 182.5 126 L 196.5 126 L 198 127.5 L 195.5 129 L 195.5 128 L 197 127.5 L 182.5 127 L 182.5 126 Z " /><path fill="rgb(240,165,165)" stroke="rgb(240,165,165)" stroke-width="1" opacity="0.8705882352941177" d="M 55.5 127 L 58 127.5 L 55.5 128 L 55.5 127 Z " /><path fill="rgb(240,165,165)" stroke="rgb(240,165,165)" stroke-width="1" opacity="0.8705882352941177" d="M 123.5 127 L 126 127.5 L 123.5 128 L 123.5 127 Z " /><path fill="rgb(240,165,165)" stroke="rgb(240,165,165)" stroke-width="1" opacity="0.8705882352941177" d="M 165.5 127 L 166 129.5 L 165 129.5 L 165.5 127 Z " /><path fill="rgb(240,165,165)" stroke="rgb(240,165,165)" stroke-width="1" opacity="0.8705882352941177" d="M 50.5 128 L 53 128.5 L 50.5 129 L 50.5 128 Z " /><path fill="rgb(240,165,165)" stroke="rgb(240,165,165)" stroke-width="1" opacity="0.8705882352941177" d="M 116.5 128 L 119 128.5 L 116.5 129 L 116.5 128 Z " /><path fill="rgb(240,165,165)" stroke="rgb(240,165,165)" stroke-width="1" opacity="0.8705882352941177" d="M 110.5 129 L 113 129.5 L 110.5 130 L 110.5 129 Z " /><path fill="rgb(240,165,165)" stroke="rgb(240,165,165)" stroke-width="1" opacity="0.8705882352941177" d="M 40.5 130 L 43 130.5 L 40.5 131 L 40.5 130 Z " /><path fill="rgb(240,165,165)" stroke="rgb(240,165,165)" stroke-width="1" opacity="0.8705882352941177" d="M 107.5 130 L 109 132.5 L 107 131.5 L 107.5 130 Z " /><path fill="rgb(240,165,165)" stroke="rgb(240,165,165)" stroke-width="1" opacity="0.8705882352941177" d="M 293.5 130 L 297 131.5 L 295.5 132 L 293.5 130 Z " /><path fill="rgb(240,165,165)" stroke="rgb(240,165,165)" stroke-width="1" opacity="0.8705882352941177" d="M 116.5 131 L 120 131.5 L 116.5 132 L 116.5 131 Z " /><path fill="rgb(240,165,165)" stroke="rgb(240,165,165)" stroke-width="1" opacity="0.8705882352941177" d="M 147.5 131 L 150 131.5 L 147.5 132 L 147.5 131 Z " /><path fill="rgb(240,165,165)" stroke="rgb(240,165,165)" stroke-width="1" opacity="0.8705882352941177" d="M 91.5 132 L 94 132.5 L 90.5 134 L 91.5 132 Z " /><path fill="rgb(240,165,165)" stroke="rgb(240,165,165)" stroke-width="1" opacity="0.8705882352941177" d="M 97.5 132 L 96.5 134 L 97.5 132 Z " /><path fill="rgb(240,165,165)" stroke="rgb(240,165,165)" stroke-width="1" opacity="0.8705882352941177" d="M 292.5 132 L 293 133.5 L 291 134.5 L 292.5 132 Z " /><path fill="rgb(240,165,165)" stroke="rgb(240,165,165)" stroke-width="1" opacity="0.8705882352941177" d="M 112.5 133 L 111.5 135 L 112.5 133 Z " /><path fill="rgb(240,165,165)" stroke="rgb(240,165,165)" stroke-width="1" opacity="0.8705882352941177" d="M 79.5 134 Q 82.8 132.9 82 135.5 L 79 137.5 L 80.5 135 L 78.5 136 L 79.5 134 Z " /><path fill="rgb(240,165,165)" stroke="rgb(240,165,165)" stroke-width="1" opacity="0.8705882352941177" d="M 109.5 134 L 111 136.5 L 109 135.5 L 109.5 134 Z " /><path fill="rgb(240,165,165)" stroke="rgb(240,165,165)" stroke-width="1" opacity="0.8705882352941177" d="M 143.5 134 L 142.5 136 L 143.5 134 Z " /><path fill="rgb(240,165,165)" stroke="rgb(240,165,165)" stroke-width="1" opacity="0.8705882352941177" d="M 212.5 134 L 219 135.5 L 213.5 136 L 212.5 134 Z " /><path fill="rgb(240,165,165)" stroke="rgb(240,165,165)" stroke-width="1" opacity="0.8705882352941177" d="M 123.5 135 L 124 137.5 L 123 137.5 L 123.5 135 Z " /><path fill="rgb(240,165,165)" stroke="rgb(240,165,165)" stroke-width="1" opacity="0.8705882352941177" d="M 133.5 135 L 136 135.5 L 133.5 136 L 133.5 135 Z " /><path fill="rgb(240,165,165)" stroke="rgb(240,165,165)" stroke-width="1" opacity="0.8705882352941177" d="M 298.5 135 L 293.5 141 L 298.5 135 Z " /><path fill="rgb(240,165,165)" stroke="rgb(240,165,165)" stroke-width="1" opacity="0.8705882352941177" d="M 92.5 136 L 95 137.5 L 93.5 138 L 92.5 136 Z " /><path fill="rgb(240,165,165)" stroke="rgb(240,165,165)" stroke-width="1" opacity="0.8705882352941177" d="M 220.5 136 L 221.5 138 L 220.5 136 Z " /><path fill="rgb(240,165,165)" stroke="rgb(240,165,165)" stroke-width="1" opacity="0.8705882352941177" d="M 17.5 137 L 16.5 139 L 17.5 137 Z " /><path fill="rgb(240,165,165)" stroke="rgb(240,165,165)" stroke-width="1" opacity="0.8705882352941177" d="M 225.5 137 L 226 139.5 L 225 139.5 L 225.5 137 Z " /><path fill="rgb(240,165,165)" stroke="rgb(240,165,165)" stroke-width="1" opacity="0.8705882352941177" d="M 128.5 139 L 127.5 141 L 128.5 139 Z " /><path fill="rgb(240,165,165)" stroke="rgb(240,165,165)" stroke-width="1" opacity="0.8705882352941177" d="M 166.5 139 L 162.5 144 L 162 140.5 L 163 140.5 L 163.5 142 L 166.5 139 Z " /><path fill="rgb(240,165,165)" stroke="rgb(240,165,165)" stroke-width="1" opacity="0.8705882352941177" d="M 282.5 139 L 283 143.5 L 282 143.5 L 282.5 139 Z " /><path fill="rgb(240,165,165)" stroke="rgb(240,165,165)" stroke-width="1" opacity="0.8705882352941177" d="M 123.5 140 L 124 143.5 L 123 143.5 L 123.5 140 Z " /><path fill="rgb(240,165,165)" stroke="rgb(240,165,165)" stroke-width="1" opacity="0.8705882352941177" d="M 126.5 142 L 125.5 144 L 126.5 142 Z " /><path fill="rgb(240,165,165)" stroke="rgb(240,165,165)" stroke-width="1" opacity="0.8705882352941177" d="M 289.5 143 L 284.5 149 L 289.5 143 Z " /><path fill="rgb(240,165,165)" stroke="rgb(240,165,165)" stroke-width="1" opacity="0.8705882352941177" d="M 11.5 144 L 12 147.5 L 11 147.5 L 11.5 144 Z " /><path fill="rgb(240,165,165)" stroke="rgb(240,165,165)" stroke-width="1" opacity="0.8705882352941177" d="M 222.5 144 L 220.5 147 L 222.5 144 Z " /><path fill="rgb(240,165,165)" stroke="rgb(240,165,165)" stroke-width="1" opacity="0.8705882352941177" d="M 305.5 144 L 300.5 150 L 305.5 144 Z " /><path fill="rgb(240,165,165)" stroke="rgb(240,165,165)" stroke-width="1" opacity="0.8705882352941177" d="M 28.5 145 L 31 146.5 L 30.5 149 L 30 146 L 28.5 145 Z " /><path fill="rgb(240,165,165)" stroke="rgb(240,165,165)" stroke-width="1" opacity="0.8705882352941177" d="M 124.5 145 L 123.5 147 L 124.5 145 Z " /><path fill="rgb(240,165,165)" stroke="rgb(240,165,165)" stroke-width="1" opacity="0.8705882352941177" d="M 162.5 145 L 163 146.5 L 161.5 149 L 161 146.5 L 162.5 145 Z " /><path fill="rgb(240,165,165)" stroke="rgb(240,165,165)" stroke-width="1" opacity="0.8705882352941177" d="M 227.5 146 L 228 148.5 L 227 148.5 L 227.5 146 Z " /><path fill="rgb(240,165,165)" stroke="rgb(240,165,165)" stroke-width="1" opacity="0.8705882352941177" d="M 218.5 147 L 217.5 149 L 216 148.5 L 218.5 147 Z " /><path fill="rgb(240,165,165)" stroke="rgb(240,165,165)" stroke-width="1" opacity="0.8705882352941177" d="M 280.5 148 L 279.5 150 L 280.5 148 Z " /><path fill="rgb(240,165,165)" stroke="rgb(240,165,165)" stroke-width="1" opacity="0.8705882352941177" d="M 211.5 150 L 213 150.5 L 210.5 152 L 211.5 150 Z " /><path fill="rgb(240,165,165)" stroke="rgb(240,165,165)" stroke-width="1" opacity="0.8705882352941177" d="M 268.5 150 L 269 156.5 L 268 156.5 L 268.5 150 Z " /><path fill="rgb(240,165,165)" stroke="rgb(240,165,165)" stroke-width="1" opacity="0.8705882352941177" d="M 281.5 150 L 277.5 155 L 281.5 150 Z " /><path fill="rgb(240,165,165)" stroke="rgb(240,165,165)" stroke-width="1" opacity="0.8705882352941177" d="M 13.5 151 L 17.5 156 L 13.5 151 Z " /><path fill="rgb(240,165,165)" stroke="rgb(240,165,165)" stroke-width="1" opacity="0.8705882352941177" d="M 167.5 151 L 175 151.5 Q 173.8 154.3 172.5 152 Q 166.5 153.2 167.5 151 Z " /><path fill="rgb(240,165,165)" stroke="rgb(240,165,165)" stroke-width="1" opacity="0.8705882352941177" d="M 215.5 151 L 218 151.5 L 215.5 152 L 215.5 151 Z " /><path fill="rgb(240,165,165)" stroke="rgb(240,165,165)" stroke-width="1" opacity="0.8705882352941177" d="M 220.5 152 L 224 154.5 L 221.5 153 L 220.5 152 Z " /><path fill="rgb(240,165,165)" stroke="rgb(240,165,165)" stroke-width="1" opacity="0.8705882352941177" d="M 296.5 152 L 291.5 158 L 296.5 152 Z " /><path fill="rgb(240,165,165)" stroke="rgb(240,165,165)" stroke-width="1" opacity="0.8705882352941177" d="M 168.5 154 L 170 154.5 L 167.5 156 L 168.5 154 Z " /><path fill="rgb(240,165,165)" stroke="rgb(240,165,165)" stroke-width="1" opacity="0.8705882352941177" d="M 19.5 156 L 20.5 158 L 19.5 156 Z " /><path fill="rgb(240,165,165)" stroke="rgb(240,165,165)" stroke-width="1" opacity="0.8705882352941177" d="M 224.5 156 L 225 159.5 L 224 159.5 L 224.5 156 Z " /><path fill="rgb(240,165,165)" stroke="rgb(240,165,165)" stroke-width="1" opacity="0.8705882352941177" d="M 274.5 156 L 270.5 161 L 274.5 156 Z " /><path fill="rgb(240,165,165)" stroke="rgb(240,165,165)" stroke-width="1" opacity="0.8705882352941177" d="M 49.5 158 Q 51.8 157.3 51 159.5 L 49.5 158 Z " /><path fill="rgb(240,165,165)" stroke="rgb(240,165,165)" stroke-width="1" opacity="0.8705882352941177" d="M 163.5 160 L 164 162.5 L 163 162.5 L 163.5 160 Z " /><path fill="rgb(240,165,165)" stroke="rgb(240,165,165)" stroke-width="1" opacity="0.8705882352941177" d="M 287.5 160 L 284.5 164 L 287.5 160 Z " /><path fill="rgb(240,165,165)" stroke="rgb(240,165,165)" stroke-width="1" opacity="0.8705882352941177" d="M 223.5 161 L 222.5 163 L 223.5 161 Z " /><path fill="rgb(240,165,165)" stroke="rgb(240,165,165)" stroke-width="1" opacity="0.8705882352941177" d="M 266.5 161 L 268 162.5 L 263.5 167 L 264.5 163 Q 267 163.7 266.5 161 Z " /><path fill="rgb(240,165,165)" stroke="rgb(240,165,165)" stroke-width="1" opacity="0.8705882352941177" d="M 64.5 163 L 66 163.5 L 64 164 L 65 166.5 L 63 165.5 L 64.5 163 Z " /><path fill="rgb(240,165,165)" stroke="rgb(240,165,165)" stroke-width="1" opacity="0.8705882352941177" d="M 34.5 164 L 38 165.5 L 36.5 166 L 34.5 164 Z " /><path fill="rgb(240,165,165)" stroke="rgb(240,165,165)" stroke-width="1" opacity="0.8705882352941177" d="M 164.5 164 L 166.5 167 L 164.5 164 Z " /><path fill="rgb(240,165,165)" stroke="rgb(240,165,165)" stroke-width="1" opacity="0.8705882352941177" d="M 260.5 164 L 263 164.5 L 260.5 165 L 260.5 164 Z " /><path fill="rgb(240,165,165)" stroke="rgb(240,165,165)" stroke-width="1" opacity="0.8705882352941177" d="M 77.5 165 Q 80.5 164.1 79 168.5 L 78 168.5 L 77.5 165 Z " /><path fill="rgb(240,165,165)" stroke="rgb(240,165,165)" stroke-width="1" opacity="0.8705882352941177" d="M 280.5 166 L 277.5 170 L 280.5 166 Z " /><path fill="rgb(240,165,165)" stroke="rgb(240,165,165)" stroke-width="1" opacity="0.8705882352941177" d="M 93.5 167 L 97 171.5 L 93 168.5 L 93.5 167 Z " /><path fill="rgb(240,165,165)" stroke="rgb(240,165,165)" stroke-width="1" opacity="0.8705882352941177" d="M 106.5 167 L 102.5 172 L 106.5 167 Z " /><path fill="rgb(240,165,165)" stroke="rgb(240,165,165)" stroke-width="1" opacity="0.8705882352941177" d="M 169.5 167 L 176 167.5 L 169.5 168 L 169.5 167 Z " /><path fill="rgb(240,165,165)" stroke="rgb(240,165,165)" stroke-width="1" opacity="0.8705882352941177" d="M 177 167 L 179 167.5 L 177 168.5 L 177 167 Z " /><path fill="rgb(240,165,165)" stroke="rgb(240,165,165)" stroke-width="1" opacity="0.8705882352941177" d="M 244.5 168 L 249 171.5 L 245.5 169 L 244.5 168 Z " /><path fill="rgb(240,165,165)" stroke="rgb(240,165,165)" stroke-width="1" opacity="0.8705882352941177" d="M 260.5 168 L 256.5 173 L 260.5 168 Z " /><path fill="rgb(240,165,165)" stroke="rgb(240,165,165)" stroke-width="1" opacity="0.8705882352941177" d="M 71.5 169 L 72.5 171 L 71.5 169 Z " /><path fill="rgb(240,165,165)" stroke="rgb(240,165,165)" stroke-width="1" opacity="0.8705882352941177" d="M 79.5 170 L 81.5 173 L 79.5 170 Z " /><path fill="rgb(240,165,165)" stroke="rgb(240,165,165)" stroke-width="1" opacity="0.8705882352941177" d="M 89.5 170 L 87.5 173 L 89.5 170 Z " /><path fill="rgb(240,165,165)" stroke="rgb(240,165,165)" stroke-width="1" opacity="0.8705882352941177" d="M 106.5 170 L 107 172.5 L 106 172.5 L 106.5 170 Z " /><path fill="rgb(240,165,165)" stroke="rgb(240,165,165)" stroke-width="1" opacity="0.8705882352941177" d="M 273.5 172 L 270.5 176 L 273.5 172 Z " /><path fill="rgb(240,165,165)" stroke="rgb(240,165,165)" stroke-width="1" opacity="0.8705882352941177" d="M 155.5 173 L 156 175.5 L 155 175.5 L 155.5 173 Z " /><path fill="rgb(240,165,165)" stroke="rgb(240,165,165)" stroke-width="1" opacity="0.8705882352941177" d="M 193.5 174 L 194.5 176 L 193.5 174 Z " /><path fill="rgb(240,165,165)" stroke="rgb(240,165,165)" stroke-width="1" opacity="0.8705882352941177" d="M 200.5 174 L 205 174.5 L 200.5 175 L 200.5 174 Z " /><path fill="rgb(240,165,165)" stroke="rgb(240,165,165)" stroke-width="1" opacity="0.8705882352941177" d="M 209.5 174 L 212 174.5 L 209.5 175 L 209.5 174 Z " /><path fill="rgb(240,165,165)" stroke="rgb(240,165,165)" stroke-width="1" opacity="0.8705882352941177" d="M 159.5 175 L 158.5 177 L 159.5 175 Z " /><path fill="rgb(240,165,165)" stroke="rgb(240,165,165)" stroke-width="1" opacity="0.8705882352941177" d="M 252.5 175 L 248.5 180 L 252.5 175 Z " /><path fill="rgb(240,165,165)" stroke="rgb(240,165,165)" stroke-width="1" opacity="0.8705882352941177" d="M 119.5 177 L 121 177.5 L 115.5 182 L 119.5 177 Z " /><path fill="rgb(240,165,165)" stroke="rgb(240,165,165)" stroke-width="1" opacity="0.8705882352941177" d="M 266.5 178 L 263.5 182 L 266.5 178 Z " /><path fill="rgb(240,165,165)" stroke="rgb(240,165,165)" stroke-width="1" opacity="0.8705882352941177" d="M 107.5 179 L 109.5 182 L 107.5 179 Z " /><path fill="rgb(240,165,165)" stroke="rgb(240,165,165)" stroke-width="1" opacity="0.8705882352941177" d="M 119.5 180 L 120 182.5 L 119 182.5 L 119.5 180 Z " /><path fill="rgb(240,165,165)" stroke="rgb(240,165,165)" stroke-width="1" opacity="0.8705882352941177" d="M 216.5 183 L 213.5 187 L 216.5 183 Z " /><path fill="rgb(240,165,165)" stroke="rgb(240,165,165)" stroke-width="1" opacity="0.8705882352941177" d="M 100.5 184 L 104 186.5 L 102.5 186 L 100.5 184 Z " /><path fill="rgb(240,165,165)" stroke="rgb(240,165,165)" stroke-width="1" opacity="0.8705882352941177" d="M 259.5 184 L 256.5 188 L 259.5 184 Z " /><path fill="rgb(240,165,165)" stroke="rgb(240,165,165)" stroke-width="1" opacity="0.8705882352941177" d="M 118.5 185 L 119 187.5 L 118 187.5 L 118.5 185 Z " /><path fill="rgb(240,165,165)" stroke="rgb(240,165,165)" stroke-width="1" opacity="0.8705882352941177" d="M 133.5 187 L 135.5 190 L 133.5 187 Z " /><path fill="rgb(240,165,165)" stroke="rgb(240,165,165)" stroke-width="1" opacity="0.8705882352941177" d="M 236.5 187 L 237 189.5 L 233 192.5 L 236.5 187 Z " /><path fill="rgb(240,165,165)" stroke="rgb(240,165,165)" stroke-width="1" opacity="0.8705882352941177" d="M 152.5 188 L 156 189.5 L 154.5 190 L 152.5 188 Z " /><path fill="rgb(240,165,165)" stroke="rgb(240,165,165)" stroke-width="1" opacity="0.8705882352941177" d="M 208.5 188 L 210 188.5 L 206.5 190 L 206.5 189 L 208.5 188 Z " /><path fill="rgb(240,165,165)" stroke="rgb(240,165,165)" stroke-width="1" opacity="0.8705882352941177" d="M 166.5 189 Q 170.3 188 169 191 L 165.5 192 L 165.5 191 L 167 190.5 L 166.5 189 Z " /><path fill="rgb(240,165,165)" stroke="rgb(240,165,165)" stroke-width="1" opacity="0.8705882352941177" d="M 213.5 189 L 224 189.5 L 213.5 190 L 213.5 189 Z " /><path fill="rgb(240,165,165)" stroke="rgb(240,165,165)" stroke-width="1" opacity="0.8705882352941177" d="M 87.5 190 L 88.5 192 L 87.5 190 Z " /><path fill="rgb(240,165,165)" stroke="rgb(240,165,165)" stroke-width="1" opacity="0.8705882352941177" d="M 252.5 190 L 250 193.5 L 249.5 195 L 249 193.5 L 252.5 190 Z " /><path fill="rgb(240,165,165)" stroke="rgb(240,165,165)" stroke-width="1" opacity="0.8705882352941177" d="M 113.5 191 L 114.5 193 L 113.5 191 Z " /><path fill="rgb(240,165,165)" stroke="rgb(240,165,165)" stroke-width="1" opacity="0.8705882352941177" d="M 138.5 192 L 139 194.5 L 138 194.5 L 138.5 192 Z " /><path fill="rgb(240,165,165)" stroke="rgb(240,165,165)" stroke-width="1" opacity="0.8705882352941177" d="M 129.5 193 L 126.5 197 L 125 197.5 L 125.5 199 Q 122.5 197.5 125.5 196 L 129.5 193 Z " /><path fill="rgb(240,165,165)" stroke="rgb(240,165,165)" stroke-width="1" opacity="0.8705882352941177" d="M 102.5 198 L 103.5 200 L 102.5 198 Z " /><path fill="rgb(240,165,165)" stroke="rgb(240,165,165)" stroke-width="1" opacity="0.8705882352941177" d="M 127.5 199 L 128.5 201 L 127.5 199 Z " /><path fill="rgb(240,165,165)" stroke="rgb(240,165,165)" stroke-width="1" opacity="0.8705882352941177" d="M 149.5 200 L 150 202.5 L 149 202.5 L 149.5 200 Z " /><path fill="rgb(240,165,165)" stroke="rgb(240,165,165)" stroke-width="1" opacity="0.8705882352941177" d="M 132.5 202 L 133.5 204 L 132.5 202 Z " /><path fill="rgb(240,165,165)" stroke="rgb(240,165,165)" stroke-width="1" opacity="0.8705882352941177" d="M 111.5 203 L 112.5 205 L 111.5 203 Z " /><path fill="rgb(240,165,165)" stroke="rgb(240,165,165)" stroke-width="1" opacity="0.8705882352941177" d="M 219.5 203 L 220 204.5 L 216 207.5 L 219.5 203 Z " /><path fill="rgb(240,165,165)" stroke="rgb(240,165,165)" stroke-width="1" opacity="0.8705882352941177" d="M 175.5 204 Q 180.3 202.7 179 206 Q 174.8 206.1 175.5 204 Z " /><path fill="rgb(240,165,165)" stroke="rgb(240,165,165)" stroke-width="1" opacity="0.8705882352941177" d="M 236.5 204 L 236.5 207 L 234 206.5 L 236.5 204 Z " /><path fill="rgb(240,165,165)" stroke="rgb(240,165,165)" stroke-width="1" opacity="0.8705882352941177" d="M 164.5 205 L 171 205.5 L 164.5 206 L 164.5 205 Z " /><path fill="rgb(240,165,165)" stroke="rgb(240,165,165)" stroke-width="1" opacity="0.8705882352941177" d="M 118.5 207 L 119.5 209 L 118.5 207 Z " /><path fill="rgb(240,165,165)" stroke="rgb(240,165,165)" stroke-width="1" opacity="0.8705882352941177" d="M 147.5 207 L 147 208.5 L 146.5 210 L 146 208.5 L 147.5 207 Z " /><path fill="rgb(240,165,165)" stroke="rgb(240,165,165)" stroke-width="1" opacity="0.8705882352941177" d="M 123.5 210 L 124.5 212 L 123.5 210 Z " /><path fill="rgb(240,165,165)" stroke="rgb(240,165,165)" stroke-width="1" opacity="0.8705882352941177" d="M 162.5 211 L 161.5 213 L 162.5 211 Z " /><path fill="rgb(240,165,165)" stroke="rgb(240,165,165)" stroke-width="1" opacity="0.8705882352941177" d="M 211.5 211 L 205.5 218 L 211.5 211 Z " /><path fill="rgb(240,165,165)" stroke="rgb(240,165,165)" stroke-width="1" opacity="0.8705882352941177" d="M 148.5 212 L 149.5 214 L 148.5 212 Z " /><path fill="rgb(240,165,165)" stroke="rgb(240,165,165)" stroke-width="1" opacity="0.8705882352941177" d="M 159.5 213 L 157.5 216 L 159.5 213 Z " /><path fill="rgb(240,165,165)" stroke="rgb(240,165,165)" stroke-width="1" opacity="0.8705882352941177" d="M 186.5 214 L 188 214.5 L 186 215.5 L 186.5 217 L 184 215.5 L 186.5 214 Z " /><path fill="rgb(240,165,165)" stroke="rgb(240,165,165)" stroke-width="1" opacity="0.8705882352941177" d="M 131.5 215 L 133 218.5 L 132 218.5 L 131.5 215 Z " /><path fill="rgb(240,165,165)" stroke="rgb(240,165,165)" stroke-width="1" opacity="0.8705882352941177" d="M 242.5 217 L 244 220.5 L 243 220.5 L 242.5 217 Z " /><path fill="rgb(240,165,165)" stroke="rgb(240,165,165)" stroke-width="1" opacity="0.8705882352941177" d="M 238.5 220 L 237 222.5 L 238 224.5 L 236 223.5 L 238.5 220 Z " /><path fill="rgb(240,165,165)" stroke="rgb(240,165,165)" stroke-width="1" opacity="0.8705882352941177" d="M 131.5 221 L 132 223.5 L 131 223.5 L 131.5 221 Z " /><path fill="rgb(240,165,165)" stroke="rgb(240,165,165)" stroke-width="1" opacity="0.8705882352941177" d="M 199.5 222 L 189.5 233 L 199.5 222 Z " /><path fill="rgb(240,165,165)" stroke="rgb(240,165,165)" stroke-width="1" opacity="0.8705882352941177" d="M 143.5 223 L 145 223.5 L 143 224 L 142.5 227 L 142 224.5 L 143.5 223 Z " /><path fill="rgb(240,165,165)" stroke="rgb(240,165,165)" stroke-width="1" opacity="0.8705882352941177" d="M 130.5 225 L 131 227.5 L 130 227.5 L 130.5 225 Z " /><path fill="rgb(240,165,165)" stroke="rgb(240,165,165)" stroke-width="1" opacity="0.8705882352941177" d="M 149.5 226 L 151 228.5 L 150 228.5 L 149.5 226 Z " /><path fill="rgb(240,165,165)" stroke="rgb(240,165,165)" stroke-width="1" opacity="0.8705882352941177" d="M 190.5 226 L 188.5 229 L 190.5 226 Z " /><path fill="rgb(240,165,165)" stroke="rgb(240,165,165)" stroke-width="1" opacity="0.8705882352941177" d="M 141.5 228 L 142 230.5 L 141 230.5 L 141.5 228 Z " /><path fill="rgb(240,165,165)" stroke="rgb(240,165,165)" stroke-width="1" opacity="0.8705882352941177" d="M 143.5 231 L 142.5 233 L 143.5 231 Z " /><path fill="rgb(240,165,165)" stroke="rgb(240,165,165)" stroke-width="1" opacity="0.8705882352941177" d="M 246.5 231 L 247 233.5 L 246 233.5 L 246.5 231 Z " /><path fill="rgb(240,165,165)" stroke="rgb(240,165,165)" stroke-width="1" opacity="0.8705882352941177" d="M 237.5 233 L 236.5 235 L 237.5 233 Z " /><path fill="rgb(240,165,165)" stroke="rgb(240,165,165)" stroke-width="1" opacity="0.8705882352941177" d="M 181.5 234 L 182.5 236 L 181.5 234 Z " /><path fill="rgb(240,165,165)" stroke="rgb(240,165,165)" stroke-width="1" opacity="0.8705882352941177" d="M 239.5 235 L 244 238.5 L 243.5 240 L 240.5 236 L 239.5 235 Z " /><path fill="rgb(240,165,165)" stroke="rgb(240,165,165)" stroke-width="1" opacity="0.8705882352941177" d="M 259.5 237 L 260 239.5 L 259 239.5 L 259.5 237 Z " /><path fill="rgb(240,165,165)" stroke="rgb(240,165,165)" stroke-width="1" opacity="0.8705882352941177" d="M 139.5 240 L 141.5 243 L 139 241.5 L 138.5 243 L 138 241.5 L 139.5 240 Z " /><path fill="rgb(240,165,165)" stroke="rgb(240,165,165)" stroke-width="1" opacity="0.8705882352941177" d="M 243.5 243 L 244 244.5 L 242.5 247 L 242 245.5 L 243.5 243 Z " /><path fill="rgb(240,165,165)" stroke="rgb(240,165,165)" stroke-width="1" opacity="0.8705882352941177" d="M 137.5 244 L 139 247.5 L 137 246.5 L 137.5 244 Z " /><path fill="rgb(240,165,165)" stroke="rgb(240,165,165)" stroke-width="1" opacity="0.8705882352941177" d="M 249.5 244 L 250 246.5 L 249 246.5 L 249.5 244 Z " /><path fill="rgb(240,165,165)" stroke="rgb(240,165,165)" stroke-width="1" opacity="0.8705882352941177" d="M 203.5 246 L 202.5 248 L 203.5 246 Z " /><path fill="rgb(240,165,165)" stroke="rgb(240,165,165)" stroke-width="1" opacity="0.8705882352941177" d="M 261.5 246 L 262 248.5 L 261 248.5 L 261.5 246 Z " /><path fill="rgb(240,165,165)" stroke="rgb(240,165,165)" stroke-width="1" opacity="0.8705882352941177" d="M 170.5 247 L 172.5 248 L 174 247.5 L 169 251.5 L 171.5 248 L 170.5 247 Z " /><path fill="rgb(240,165,165)" stroke="rgb(240,165,165)" stroke-width="1" opacity="0.8705882352941177" d="M 208.5 247 L 213.5 247 L 218 250.5 L 216.5 251 L 213.5 248 Q 207.5 249.3 208.5 247 Z " /><path fill="rgb(240,165,165)" stroke="rgb(240,165,165)" stroke-width="1" opacity="0.8705882352941177" d="M 244.5 247 L 246.5 250 L 244.5 247 Z " /><path fill="rgb(240,165,165)" stroke="rgb(240,165,165)" stroke-width="1" opacity="0.8705882352941177" d="M 159.5 250 L 161 250.5 L 158.5 252 L 159.5 250 Z " /><path fill="rgb(240,165,165)" stroke="rgb(240,165,165)" stroke-width="1" opacity="0.8705882352941177" d="M 205.5 251 L 206.5 253 L 205.5 251 Z " /><path fill="rgb(240,165,165)" stroke="rgb(240,165,165)" stroke-width="1" opacity="0.8705882352941177" d="M 247.5 251 L 248 254.5 L 247 254.5 L 247.5 251 Z " /><path fill="rgb(240,165,165)" stroke="rgb(240,165,165)" stroke-width="1" opacity="0.8705882352941177" d="M 135.5 252 L 136 254 Q 138.7 255.1 138 252.5 L 139 252.5 L 137.5 255 Q 133.1 256.1 135.5 252 Z " /><path fill="rgb(240,165,165)" stroke="rgb(240,165,165)" stroke-width="1" opacity="0.8705882352941177" d="M 188.5 253 L 189.5 255 L 188.5 253 Z " /><path fill="rgb(240,165,165)" stroke="rgb(240,165,165)" stroke-width="1" opacity="0.8705882352941177" d="M 208.5 253 L 210.5 256 L 208.5 253 Z " /><path fill="rgb(240,165,165)" stroke="rgb(240,165,165)" stroke-width="1" opacity="0.8705882352941177" d="M 191.5 255 L 192.5 257 L 191.5 255 Z " /><path fill="rgb(240,165,165)" stroke="rgb(240,165,165)" stroke-width="1" opacity="0.8705882352941177" d="M 263.5 255 L 264 257.5 L 263 257.5 L 263.5 255 Z " /><path fill="rgb(240,165,165)" stroke="rgb(240,165,165)" stroke-width="1" opacity="0.8705882352941177" d="M 157.5 256 L 154.5 260 L 157.5 256 Z " /><path fill="rgb(240,165,165)" stroke="rgb(240,165,165)" stroke-width="1" opacity="0.8705882352941177" d="M 212.5 256 L 214.5 259 L 212.5 256 Z " /><path fill="rgb(240,165,165)" stroke="rgb(240,165,165)" stroke-width="1" opacity="0.8705882352941177" d="M 246.5 256 L 249 257.5 L 247.5 258 L 246.5 256 Z " /><path fill="rgb(240,165,165)" stroke="rgb(240,165,165)" stroke-width="1" opacity="0.8705882352941177" d="M 194.5 257 L 196.5 260 L 194.5 257 Z " /><path fill="rgb(240,165,165)" stroke="rgb(240,165,165)" stroke-width="1" opacity="0.8705882352941177" d="M 220.5 258 L 222.5 261 L 220.5 258 Z " /><path fill="rgb(240,165,165)" stroke="rgb(240,165,165)" stroke-width="1" opacity="0.8705882352941177" d="M 216.5 259 L 218.5 262 L 216.5 259 Z " /><path fill="rgb(240,165,165)" stroke="rgb(240,165,165)" stroke-width="1" opacity="0.8705882352941177" d="M 198.5 260 L 199.5 262 L 198.5 260 Z " /><path fill="rgb(240,165,165)" stroke="rgb(240,165,165)" stroke-width="1" opacity="0.8705882352941177" d="M 160.5 261 L 152.5 270 L 160.5 261 Z " /><path fill="rgb(240,165,165)" stroke="rgb(240,165,165)" stroke-width="1" opacity="0.8705882352941177" d="M 224.5 261 L 225 265 L 223 264.5 L 224.5 261 Z " /><path fill="rgb(240,165,165)" stroke="rgb(240,165,165)" stroke-width="1" opacity="0.8705882352941177" d="M 220.5 262 L 221.5 264 L 220.5 262 Z " /><path fill="rgb(240,165,165)" stroke="rgb(240,165,165)" stroke-width="1" opacity="0.8705882352941177" d="M 202.5 263 L 203.5 265 L 202.5 263 Z " /><path fill="rgb(240,165,165)" stroke="rgb(240,165,165)" stroke-width="1" opacity="0.8705882352941177" d="M 265.5 264 L 266 266.5 L 265 266.5 L 265.5 264 Z " /><path fill="rgb(240,165,165)" stroke="rgb(240,165,165)" stroke-width="1" opacity="0.8705882352941177" d="M 139.5 265 L 142 268.5 L 139 266.5 L 139.5 265 Z " /><path fill="rgb(240,165,165)" stroke="rgb(240,165,165)" stroke-width="1" opacity="0.8705882352941177" d="M 205.5 265 L 207.5 268 L 205.5 265 Z " /><path fill="rgb(240,165,165)" stroke="rgb(240,165,165)" stroke-width="1" opacity="0.8705882352941177" d="M 171.5 266 L 161.5 277 L 171.5 266 Z " /><path fill="rgb(240,165,165)" stroke="rgb(240,165,165)" stroke-width="1" opacity="0.8705882352941177" d="M 253.5 266 L 255 269.5 L 254.5 272 Q 251.8 270.7 254 269.5 L 253.5 266 Z " /><path fill="rgb(240,165,165)" stroke="rgb(240,165,165)" stroke-width="1" opacity="0.8705882352941177" d="M 209.5 268 L 210.5 270 L 209.5 268 Z " /><path fill="rgb(240,165,165)" stroke="rgb(240,165,165)" stroke-width="1" opacity="0.8705882352941177" d="M 213.5 271 L 214.5 273 L 213.5 271 Z " /><path fill="rgb(240,165,165)" stroke="rgb(240,165,165)" stroke-width="1" opacity="0.8705882352941177" d="M 233.5 271 L 236 271.5 L 233 273 L 233.5 271 Z " /><path fill="rgb(240,165,165)" stroke="rgb(240,165,165)" stroke-width="1" opacity="0.8705882352941177" d="M 148.5 274 L 142.5 281 L 140 280.5 Q 141.3 277.8 142.5 280 L 148.5 274 Z " /><path fill="rgb(240,165,165)" stroke="rgb(240,165,165)" stroke-width="1" opacity="0.8705882352941177" d="M 217.5 274 L 218.5 276 L 217.5 274 Z " /><path fill="rgb(240,165,165)" stroke="rgb(240,165,165)" stroke-width="1" opacity="0.8705882352941177" d="M 221.5 277 L 222.5 279 L 221.5 277 Z " /><path fill="rgb(240,165,165)" stroke="rgb(240,165,165)" stroke-width="1" opacity="0.8705882352941177" d="M 268.5 278 L 269 280.5 L 268 280.5 L 268.5 278 Z " /><path fill="rgb(240,165,165)" stroke="rgb(240,165,165)" stroke-width="1" opacity="0.8705882352941177" d="M 224.5 279 L 225.5 281 L 224.5 279 Z " /><path fill="rgb(240,165,165)" stroke="rgb(240,165,165)" stroke-width="1" opacity="0.8705882352941177" d="M 157.5 281 L 151.5 288 L 157.5 281 Z " /><path fill="rgb(240,165,165)" stroke="rgb(240,165,165)" stroke-width="1" opacity="0.8705882352941177" d="M 139.5 282 L 140 284.5 L 134.5 290 L 133 288.5 L 139.5 282 Z " /><path fill="rgb(240,165,165)" stroke="rgb(240,165,165)" stroke-width="1" opacity="0.8705882352941177" d="M 228.5 282 L 229.5 284 L 228.5 282 Z " /><path fill="rgb(240,165,165)" stroke="rgb(240,165,165)" stroke-width="1" opacity="0.8705882352941177" d="M 231.5 284 L 232.5 286 L 231.5 284 Z " /><path fill="rgb(240,165,165)" stroke="rgb(240,165,165)" stroke-width="1" opacity="0.8705882352941177" d="M 269.5 285 L 270 291.5 L 269 291.5 L 269.5 285 Z " /><path fill="rgb(240,165,165)" stroke="rgb(240,165,165)" stroke-width="1" opacity="0.8705882352941177" d="M 235.5 287 L 236.5 289 L 235.5 287 Z " /><path fill="rgb(240,165,165)" stroke="rgb(240,165,165)" stroke-width="1" opacity="0.8705882352941177" d="M 238.5 289 L 239.5 291 L 238.5 289 Z " /><path fill="rgb(240,165,165)" stroke="rgb(240,165,165)" stroke-width="1" opacity="0.8705882352941177" d="M 131.5 291 L 133 292.5 L 127.5 298 L 132 292.5 L 131.5 291 Z " /><path fill="rgb(240,165,165)" stroke="rgb(240,165,165)" stroke-width="1" opacity="0.8705882352941177" d="M 148.5 291 L 143.5 297 L 148.5 291 Z " /><path fill="rgb(240,165,165)" stroke="rgb(240,165,165)" stroke-width="1" opacity="0.8705882352941177" d="M 241.5 291 L 242.5 293 L 241.5 291 Z " /><path fill="rgb(240,165,165)" stroke="rgb(240,165,165)" stroke-width="1" opacity="0.8705882352941177" d="M 125.5 293 L 129 293.5 L 124.5 295 L 125.5 293 Z " /><path fill="rgb(240,165,165)" stroke="rgb(240,165,165)" stroke-width="1" opacity="0.8705882352941177" d="M 244.5 293 L 245.5 295 L 244.5 293 Z " /><path fill="rgb(240,165,165)" stroke="rgb(240,165,165)" stroke-width="1" opacity="0.8705882352941177" d="M 247.5 295 L 248.5 297 L 247.5 295 Z " /><path fill="rgb(240,165,165)" stroke="rgb(240,165,165)" stroke-width="1" opacity="0.8705882352941177" d="M 122.5 300 L 123.5 302 L 125 301.5 L 122 303 L 122.5 300 Z " /><path fill="rgb(240,165,165)" stroke="rgb(240,165,165)" stroke-width="1" opacity="0.8705882352941177" d="M 140.5 300 L 136.5 305 L 140.5 300 Z " /><path fill="rgb(240,165,165)" stroke="rgb(240,165,165)" stroke-width="1" opacity="0.8705882352941177" d="M 258.5 300 L 262 300.5 L 258.5 301 L 258.5 300 Z " /><path fill="rgb(240,165,165)" stroke="rgb(240,165,165)" stroke-width="1" opacity="0.8705882352941177" d="M 133.5 308 L 129.5 313 L 133.5 308 Z " /><path fill="rgb(240,165,165)" stroke="rgb(240,165,165)" stroke-width="1" opacity="0.8705882352941177" d="M 126.5 316 L 122.5 321 L 126.5 316 Z " /><path fill="rgb(240,165,165)" stroke="rgb(240,165,165)" stroke-width="1" opacity="0.8705882352941177" d="M 119.5 324 L 116.5 328 L 119.5 324 Z " /><path fill="rgb(240,165,165)" stroke="rgb(240,165,165)" stroke-width="1" opacity="0.8705882352941177" d="M 103.5 325 L 101.5 328 L 103.5 325 Z " /><path fill="rgb(240,165,165)" stroke="rgb(240,165,165)" stroke-width="1" opacity="0.8705882352941177" d="M 113.5 331 L 110.5 335 L 113.5 331 Z " /><path fill="rgb(240,165,165)" stroke="rgb(240,165,165)" stroke-width="1" opacity="0.8705882352941177" d="M 97.5 332 L 96.5 334 L 97.5 332 Z " /><path fill="rgb(240,165,165)" stroke="rgb(240,165,165)" stroke-width="1" opacity="0.8705882352941177" d="M 107.5 338 L 103.5 343 L 107.5 338 Z " /><path fill="rgb(240,165,165)" stroke="rgb(240,165,165)" stroke-width="1" opacity="0.8705882352941177" d="M 95.5 340 L 97.5 343 L 95.5 340 Z " /><path fill="rgb(240,165,165)" stroke="rgb(240,165,165)" stroke-width="1" opacity="0.8705882352941177" d="M 99.5 343 L 102 343.5 L 99.5 344 L 99.5 343 Z " /><path fill="rgb(242,167,167)" stroke="rgb(242,167,167)" stroke-width="1" opacity="1" d="M 190.5 7 L 197.5 8 L 204 14.5 L 214 42.5 L 227 93.5 L 227 97.5 L 228.5 99 L 248.5 97 L 288.5 90 L 308.5 89 L 309.5 88 L 322.5 88 Q 332.2 89.8 337 96.5 Q 339.3 99.7 338 106.5 Q 335 115.5 329 121.5 L 306.5 144 L 249 193.5 L 267 271.5 L 269 281.5 L 269 293.5 L 265.5 299 L 256.5 300 L 249.5 297 L 234.5 287 L 194.5 257 L 185.5 252 L 161 276.5 L 102.5 343 Q 96 344 95 339.5 L 96 334.5 L 104 325.5 L 107 316.5 L 126 247.5 L 133 216.5 Q 80.8 183.7 21.5 158 L 13 150.5 L 12 143.5 L 15.5 139 L 30.5 133 L 47.5 129 L 52.5 129 L 69.5 125 L 74.5 125 L 80.5 123 L 91.5 122 L 140.5 113 L 152.5 112 L 159 109.5 L 159 105.5 L 177 29.5 L 184 12.5 L 188.5 8 L 190.5 7 Z M 192 20 L 188 33 L 197 28 L 195 22 L 192 20 Z M 200 39 L 197 40 L 198 43 Q 198 50 193 53 L 199 55 L 201 59 L 200 64 L 193 69 L 191 72 Q 204 70 208 77 L 207 84 L 191 95 Q 201 94 208 97 L 210 102 L 217 101 L 202 41 L 200 39 Z M 176 81 L 174 91 L 186 85 L 187 82 L 176 81 Z M 293 101 L 293 103 Q 295 107 297 104 Q 298 99 293 101 Z M 325 101 L 325 103 L 327 104 Q 328 100 325 101 Z M 171 102 L 170 108 L 177 108 L 178 107 Q 182 108 181 105 L 178 105 L 171 102 Z M 283 102 L 282 103 L 262 105 L 261 106 L 231 110 Q 230 117 235 120 L 236 113 L 240 110 L 245 111 L 250 128 Q 251 123 259 125 L 259 114 L 260 112 Q 262 108 268 109 L 273 116 L 274 112 L 280 108 L 282 109 L 284 104 Q 285 101 283 102 Z M 216 112 L 203 114 L 204 116 L 220 116 Q 222 110 216 112 Z M 306 117 Q 307 124 304 129 Q 303 131 306 130 L 314 122 L 314 120 L 306 117 Z M 167 120 L 162 141 L 163 144 L 170 138 L 198 128 L 197 126 L 180 126 L 175 124 L 173 122 Q 172 119 167 120 Z M 154 122 L 107 130 L 111 137 L 111 136 Q 113 131 121 132 L 123 135 L 124 139 L 123 141 L 124 147 L 129 139 L 133 136 Q 139 135 141 139 L 144 133 L 147 132 L 153 133 L 155 127 Q 157 121 154 122 Z M 223 130 L 212 135 Q 213 138 220 136 Q 224 137 223 144 L 220 147 L 210 152 L 222 153 Q 225 154 224 161 L 214 167 L 194 174 L 195 176 L 206 174 L 214 175 Q 218 176 217 183 Q 214 188 206 190 L 225 190 L 227 191 L 230 196 L 237 190 L 224 133 Q 225 129 223 130 Z M 293 130 L 291 136 L 289 137 L 283 136 L 281 148 L 276 151 L 270 147 Q 267 151 268 159 L 266 163 L 258 164 L 256 171 L 254 172 L 250 172 L 244 168 L 246 180 L 249 180 L 294 141 L 303 131 L 301 132 L 293 130 Z M 92 132 L 90 134 L 92 137 L 95 138 L 98 133 L 92 132 Z M 80 134 L 78 136 L 79 138 L 82 136 Q 83 133 80 134 Z M 29 145 L 28 146 Q 25 145 26 148 L 29 149 Q 32 150 31 147 L 29 145 Z M 163 145 L 161 147 L 161 152 L 158 161 L 155 178 L 179 168 L 168 167 L 164 164 L 165 158 L 175 152 Q 167 152 164 150 L 163 145 Z M 43 154 L 43 156 L 46 157 L 45 156 Q 46 153 43 154 Z M 50 158 Q 49 161 53 160 Q 54 157 50 158 Z M 65 163 L 63 166 L 67 167 L 66 165 Q 67 162 65 163 Z M 77 165 L 77 167 L 71 170 L 119 194 L 118 193 L 120 179 L 121 177 L 115 182 L 111 182 L 106 176 L 107 173 L 107 167 L 102 172 L 98 172 L 94 168 L 91 166 L 91 169 L 87 173 Q 80 174 79 170 Q 81 164 77 165 Z M 133 187 L 130 193 L 124 198 L 134 204 L 136 204 L 137 203 L 139 190 L 137 190 L 133 187 Z M 152 188 L 149 205 Q 145 207 146 212 L 155 217 L 157 217 L 166 210 L 177 206 Q 180 207 179 204 L 175 205 L 163 205 L 161 204 L 158 201 L 159 196 L 168 191 Q 170 192 169 189 L 166 190 Q 156 191 152 188 Z M 240 202 L 237 204 L 235 207 L 241 206 L 240 202 Z M 220 203 L 184 216 L 190 218 L 192 223 L 191 226 Q 188 230 181 231 L 179 234 L 185 237 L 220 205 L 220 203 Z M 243 217 L 236 223 L 239 228 Q 240 233 236 235 L 241 236 L 244 241 L 242 247 L 247 251 Q 248 255 246 257 L 251 259 L 253 259 L 244 223 L 244 219 L 243 217 Z M 144 223 L 142 225 L 141 233 L 150 229 Q 152 230 151 228 L 144 223 Z M 140 240 L 137 245 L 135 255 L 139 254 L 138 252 L 139 247 L 142 245 Q 143 241 140 240 Z M 206 245 L 204 246 L 202 250 L 224 265 L 225 265 L 225 261 L 220 258 L 221 251 Q 216 251 214 247 L 208 247 L 206 245 Z M 171 247 Q 166 250 160 250 Q 157 251 158 256 L 154 260 L 139 265 L 143 272 L 142 279 L 133 290 Q 132 294 126 293 L 122 301 Q 121 304 124 303 L 174 248 L 171 247 Z M 254 266 L 252 270 L 255 272 Q 256 267 254 266 Z M 233 271 L 233 273 L 236 272 L 233 271 Z M 254 285 L 254 287 L 258 288 Q 260 283 254 285 Z " /><path fill="rgb(239,164,164)" stroke="rgb(239,164,164)" stroke-width="1" opacity="0.3254901960784314" d="M 189.5 6 L 192 6.5 Q 186.4 7.4 184 11.5 L 178.5 24 L 178 22.5 Q 180.4 12.4 187.5 7 L 189.5 6 Z " /><path fill="rgb(239,164,164)" stroke="rgb(239,164,164)" stroke-width="1" opacity="0.3254901960784314" d="M 195.5 6 L 197.5 6 L 205 13.5 L 212 33.5 L 211 33.5 L 207 19.5 L 198.5 8 Q 194.8 7.8 195.5 6 Z " /><path fill="rgb(239,164,164)" stroke="rgb(239,164,164)" stroke-width="1" opacity="0.3254901960784314" d="M 192 21 L 195 22.5 L 196 27.5 L 189.5 32 L 189 29.5 L 192 21 Z M 194 22 L 191 29 L 191 30 L 195 28 L 194 22 Z " /><path fill="rgb(239,164,164)" stroke="rgb(239,164,164)" stroke-width="1" opacity="0.3254901960784314" d="M 177.5 25 L 178 27.5 L 172.5 46 L 172 43.5 L 177.5 25 Z " /><path fill="rgb(239,164,164)" stroke="rgb(239,164,164)" stroke-width="1" opacity="0.3254901960784314" d="M 212.5 35 L 217 50.5 L 216 50.5 L 212.5 35 Z " /><path fill="rgb(239,164,164)" stroke="rgb(239,164,164)" stroke-width="1" opacity="0.3254901960784314" d="M 200.5 39 L 201 41 Q 197.5 39.9 199 47.5 L 196 53 L 201 55.5 L 202 62.5 L 197.5 68 L 195 69.5 L 197 70.5 L 192.5 71 L 193.5 69 L 200 64.5 L 201 57.5 L 194 52.5 L 198 47.5 L 198 40 L 200.5 39 Z " /><path fill="rgb(239,164,164)" stroke="rgb(239,164,164)" stroke-width="1" opacity="0.3254901960784314" d="M 201.5 42 L 205 54.5 L 204 54.5 L 201.5 42 Z " /><path fill="rgb(239,164,164)" stroke="rgb(239,164,164)" stroke-width="1" opacity="0.3254901960784314" d="M 171.5 47 L 172 50.5 L 169.5 59 L 169 55.5 L 171.5 47 Z " /><path fill="rgb(239,164,164)" stroke="rgb(239,164,164)" stroke-width="1" opacity="0.3254901960784314" d="M 217.5 52 L 226 86.5 L 225 86.5 L 217 54.5 L 217.5 52 Z " /><path fill="rgb(239,164,164)" stroke="rgb(239,164,164)" stroke-width="1" opacity="0.3254901960784314" d="M 205.5 56 L 209 70.5 L 208 70.5 L 205.5 56 Z " /><path fill="rgb(239,164,164)" stroke="rgb(239,164,164)" stroke-width="1" opacity="0.3254901960784314" d="M 168.5 60 L 169 63.5 L 166.5 72 L 166 68.5 L 168.5 60 Z " /><path fill="rgb(239,164,164)" stroke="rgb(239,164,164)" stroke-width="1" opacity="0.3254901960784314" d="M 198.5 71 Q 206.6 69.9 208.5 75 L 209.5 72 L 210 74.5 L 208.5 78 L 205.5 73 L 198.5 72 L 198.5 71 Z " /><path fill="rgb(239,164,164)" stroke="rgb(239,164,164)" stroke-width="1" opacity="0.3254901960784314" d="M 165.5 73 L 166 76.5 L 163.5 85 L 163 81.5 L 165.5 73 Z " /><path fill="rgb(239,164,164)" stroke="rgb(239,164,164)" stroke-width="1" opacity="0.3254901960784314" d="M 210.5 76 L 214 91.5 L 213 91.5 L 210 79.5 L 210.5 76 Z " /><path fill="rgb(239,164,164)" stroke="rgb(239,164,164)" stroke-width="1" opacity="0.3254901960784314" d="M 208.5 80 L 209 82.5 L 205.5 87 L 194 93.5 L 204.5 94 L 210 97.5 L 212 101.5 L 210 100.5 L 209 97 L 204.5 95 L 192 95 Q 190.9 92.3 193.5 93 Q 202.5 89.5 208 82.5 L 208.5 80 Z " /><path fill="rgb(239,164,164)" stroke="rgb(239,164,164)" stroke-width="1" opacity="0.3254901960784314" d="M 177.5 81 L 183 82.5 L 179.5 83 L 177 82 L 176 87.5 L 177.5 87 L 185.5 83 L 184.5 85 L 175.5 90 L 175 86.5 L 177.5 81 Z " /><path fill="rgb(239,164,164)" stroke="rgb(239,164,164)" stroke-width="1" opacity="0.3254901960784314" d="M 162.5 86 L 163 89.5 L 161.5 94 L 161 90.5 L 162.5 86 Z " /><path fill="rgb(239,164,164)" stroke="rgb(239,164,164)" stroke-width="1" opacity="0.3254901960784314" d="M 303.5 87 L 324.5 87 Q 333.4 89.1 338 95.5 Q 340.7 98.8 340 105.5 L 330 122.5 L 308.5 144 L 251 193.5 L 253 205.5 L 252 205.5 L 250 193.5 L 300.5 150 L 328 123.5 L 338 108.5 L 339 100.5 Q 337.8 94.8 333.5 92 L 324.5 88 L 303.5 88 L 303.5 87 Z " /><path fill="rgb(239,164,164)" stroke="rgb(239,164,164)" stroke-width="1" opacity="0.3254901960784314" d="M 226.5 88 L 227 90.5 L 226 90.5 L 226.5 88 Z " /><path fill="rgb(239,164,164)" stroke="rgb(239,164,164)" stroke-width="1" opacity="0.3254901960784314" d="M 293.5 88 L 302 88.5 L 293.5 89 L 293.5 88 Z " /><path fill="rgb(239,164,164)" stroke="rgb(239,164,164)" stroke-width="1" opacity="0.3254901960784314" d="M 285.5 89 L 292 89.5 L 285.5 90 L 285.5 89 Z " /><path fill="rgb(239,164,164)" stroke="rgb(239,164,164)" stroke-width="1" opacity="0.3254901960784314" d="M 278.5 90 L 284 90.5 L 278.5 91 L 278.5 90 Z " /><path fill="rgb(239,164,164)" stroke="rgb(239,164,164)" stroke-width="1" opacity="0.3254901960784314" d="M 271.5 91 L 277 91.5 L 271.5 92 L 271.5 91 Z " /><path fill="rgb(239,164,164)" stroke="rgb(239,164,164)" stroke-width="1" opacity="0.3254901960784314" d="M 227.5 92 L 229 98 L 244.5 96 L 244.5 97 L 228 99 L 227.5 92 Z " /><path fill="rgb(239,164,164)" stroke="rgb(239,164,164)" stroke-width="1" opacity="0.3254901960784314" d="M 265.5 92 L 270 92.5 L 265.5 93 L 265.5 92 Z " /><path fill="rgb(239,164,164)" stroke="rgb(239,164,164)" stroke-width="1" opacity="0.3254901960784314" d="M 214.5 93 L 215 95.5 L 214 95.5 L 214.5 93 Z " /><path fill="rgb(239,164,164)" stroke="rgb(239,164,164)" stroke-width="1" opacity="0.3254901960784314" d="M 258.5 93 L 264 93.5 L 246.5 96 L 246.5 95 L 251.5 95 L 258.5 93 Z " /><path fill="rgb(239,164,164)" stroke="rgb(239,164,164)" stroke-width="1" opacity="0.3254901960784314" d="M 160.5 95 L 161 98.5 L 158.5 107 L 158 103.5 L 160.5 95 Z " /><path fill="rgb(239,164,164)" stroke="rgb(239,164,164)" stroke-width="1" opacity="0.3254901960784314" d="M 215.5 97 L 216 101 L 213 100.5 L 215 100 L 215.5 97 Z " /><path fill="rgb(239,164,164)" stroke="rgb(239,164,164)" stroke-width="1" opacity="0.3254901960784314" d="M 294 101 Q 297.3 99.9 296 104 Q 292.7 105.1 294 101 Z " /><path fill="rgb(239,164,164)" stroke="rgb(239,164,164)" stroke-width="1" opacity="0.3254901960784314" d="M 172.5 103 L 180 106.5 L 175.5 107 L 175.5 105 L 172 104 Q 170.5 107.8 173.5 107 L 173.5 108 Q 169.3 109.3 171 104.5 L 172.5 103 Z " /><path fill="rgb(239,164,164)" stroke="rgb(239,164,164)" stroke-width="1" opacity="0.3254901960784314" d="M 279.5 103 Q 283.9 101.5 283 104.5 L 281.5 104 Q 278.5 104.5 279.5 103 Z " /><path fill="rgb(239,164,164)" stroke="rgb(239,164,164)" stroke-width="1" opacity="0.3254901960784314" d="M 272.5 104 L 278 104.5 L 272.5 105 L 272.5 104 Z " /><path fill="rgb(239,164,164)" stroke="rgb(239,164,164)" stroke-width="1" opacity="0.3254901960784314" d="M 265.5 105 L 271 105.5 L 265.5 106 L 265.5 105 Z " /><path fill="rgb(239,164,164)" stroke="rgb(239,164,164)" stroke-width="1" opacity="0.3254901960784314" d="M 258.5 106 L 264 106.5 L 258.5 107 L 258.5 106 Z " /><path fill="rgb(239,164,164)" stroke="rgb(239,164,164)" stroke-width="1" opacity="0.3254901960784314" d="M 281.5 106 L 282 108 Q 276.3 107 274 110.5 L 273 114 Q 270.3 115.1 271 112.5 L 268.5 109 L 266 108.5 L 268.5 108 L 271 112 Q 273.7 113.1 273 110.5 L 275.5 108 L 281.5 106 Z " /><path fill="rgb(239,164,164)" stroke="rgb(239,164,164)" stroke-width="1" opacity="0.3254901960784314" d="M 251.5 107 L 257 107.5 L 245.5 109 L 245.5 108 Q 250.2 109.3 251.5 107 Z " /><path fill="rgb(239,164,164)" stroke="rgb(239,164,164)" stroke-width="1" opacity="0.3254901960784314" d="M 261.5 108 L 264 108.5 L 260 110.5 L 258.5 117 L 258 112.5 L 261.5 108 Z " /><path fill="rgb(239,164,164)" stroke="rgb(239,164,164)" stroke-width="1" opacity="0.3254901960784314" d="M 242.5 109 L 247 112.5 L 250.5 125 L 252.5 124 L 250.5 127 Q 247.5 127.9 249 123.5 L 247 114.5 L 243.5 110 L 242.5 109 Z " /><path fill="rgb(239,164,164)" stroke="rgb(239,164,164)" stroke-width="1" opacity="0.3254901960784314" d="M 150.5 110 L 156 110.5 L 144.5 112 L 144.5 111 Q 149.2 112.3 150.5 110 Z " /><path fill="rgb(239,164,164)" stroke="rgb(239,164,164)" stroke-width="1" opacity="0.3254901960784314" d="M 232.5 110 L 238 110.5 Q 233.5 112.3 235 119 Q 232.3 120.1 233 117.5 L 231 111.5 L 232.5 110 Z M 232 111 L 234 117 L 235 113 Q 236 109 232 111 Z " /><path fill="rgb(239,164,164)" stroke="rgb(239,164,164)" stroke-width="1" opacity="0.3254901960784314" d="M 138.5 112 L 143 112.5 L 138.5 113 L 138.5 112 Z " /><path fill="rgb(239,164,164)" stroke="rgb(239,164,164)" stroke-width="1" opacity="0.3254901960784314" d="M 132.5 113 L 137 113.5 L 132.5 114 L 132.5 113 Z " /><path fill="rgb(239,164,164)" stroke="rgb(239,164,164)" stroke-width="1" opacity="0.3254901960784314" d="M 212.5 113 L 218 113.5 L 215.5 115 L 213.5 114 Q 212 116.5 206.5 115 L 206.5 114 Q 211.3 115.3 212.5 113 Z " /><path fill="rgb(239,164,164)" stroke="rgb(239,164,164)" stroke-width="1" opacity="0.3254901960784314" d="M 219.5 113 L 220 114.5 L 218 115.5 L 219.5 113 Z " /><path fill="rgb(239,164,164)" stroke="rgb(239,164,164)" stroke-width="1" opacity="0.3254901960784314" d="M 125.5 114 L 131 114.5 L 84.5 122 L 84.5 121 L 124.5 115 L 125.5 114 Z " /><path fill="rgb(239,164,164)" stroke="rgb(239,164,164)" stroke-width="1" opacity="0.3254901960784314" d="M 306 118 L 314 120.5 L 305 128.5 L 306 118 Z M 308 119 L 307 126 L 312 122 L 308 119 Z " /><path fill="rgb(239,164,164)" stroke="rgb(239,164,164)" stroke-width="1" opacity="0.3254901960784314" d="M 168.5 120 L 170.5 120 L 177.5 126 L 182 126.5 L 177.5 127 L 172 123.5 L 170.5 121 Q 166.3 119.7 168 124.5 L 166.5 129 L 166 125.5 L 168.5 120 Z " /><path fill="rgb(239,164,164)" stroke="rgb(239,164,164)" stroke-width="1" opacity="0.3254901960784314" d="M 78.5 122 L 83 122.5 L 78.5 123 L 78.5 122 Z " /><path fill="rgb(239,164,164)" stroke="rgb(239,164,164)" stroke-width="1" opacity="0.3254901960784314" d="M 72.5 123 L 77 123.5 L 67.5 125 L 67.5 124 L 72.5 123 Z " /><path fill="rgb(239,164,164)" stroke="rgb(239,164,164)" stroke-width="1" opacity="0.3254901960784314" d="M 150.5 123 Q 155.9 121.1 155 124.5 L 153 132 L 147.5 131 L 142 135.5 L 140.5 139 Q 138.7 135.3 133.5 135 L 127 140.5 L 123.5 146 L 123 144.5 L 124.5 136 L 125.5 142 L 129.5 136 L 135.5 134 L 140.5 137 L 145.5 131 L 149.5 130 L 152 131 L 154 124.5 L 150.5 124 L 149.5 125 L 126.5 128 L 126.5 127 L 131.5 127 L 150.5 123 Z " /><path fill="rgb(239,164,164)" stroke="rgb(239,164,164)" stroke-width="1" opacity="0.3254901960784314" d="M 254.5 123 L 258 123.5 L 254.5 124 L 254.5 123 Z " /><path fill="rgb(239,164,164)" stroke="rgb(239,164,164)" stroke-width="1" opacity="0.3254901960784314" d="M 61.5 125 L 66 125.5 L 56.5 127 L 56.5 126 L 61.5 125 Z " /><path fill="rgb(239,164,164)" stroke="rgb(239,164,164)" stroke-width="1" opacity="0.3254901960784314" d="M 50.5 127 L 55 127.5 L 29.5 133 L 29.5 132 L 50.5 127 Z " /><path fill="rgb(239,164,164)" stroke="rgb(239,164,164)" stroke-width="1" opacity="0.3254901960784314" d="M 183.5 127 L 197 127.5 L 193.5 129 L 192.5 128 L 183.5 128 L 183.5 127 Z " /><path fill="rgb(239,164,164)" stroke="rgb(239,164,164)" stroke-width="1" opacity="0.3254901960784314" d="M 119.5 128 L 125 128.5 L 119 129.5 L 124 133.5 L 123.5 135 L 122 132 L 113 129.5 L 119.5 128 Z " /><path fill="rgb(239,164,164)" stroke="rgb(239,164,164)" stroke-width="1" opacity="0.3254901960784314" d="M 190.5 129 L 192 129.5 L 182.5 133 L 182.5 132 L 190.5 129 Z " /><path fill="rgb(239,164,164)" stroke="rgb(239,164,164)" stroke-width="1" opacity="0.3254901960784314" d="M 108 130 L 112 130.5 L 109 131.5 L 110.5 134 L 115.5 131 L 115.5 132 L 111 134.5 L 110.5 136 L 108 130 Z " /><path fill="rgb(239,164,164)" stroke="rgb(239,164,164)" stroke-width="1" opacity="0.3254901960784314" d="M 165.5 130 L 166 133.5 L 164 139.5 L 166.5 138 L 180.5 133 L 180.5 134 L 168.5 138 L 163.5 142 L 163 138.5 L 165.5 130 Z " /><path fill="rgb(239,164,164)" stroke="rgb(239,164,164)" stroke-width="1" opacity="0.3254901960784314" d="M 221.5 131 Q 225.7 129.7 224 134.5 L 225 138.5 Q 222.7 139.7 224 144.5 L 220.5 148 L 218.5 149 L 219.5 147 L 223 144.5 Q 224 138 220.5 136 L 213 134.5 L 221.5 131 Z M 222 132 L 218 134 L 221 135 L 223 139 L 224 139 L 223 135 Q 224 131 222 132 Z " /><path fill="rgb(239,164,164)" stroke="rgb(239,164,164)" stroke-width="1" opacity="0.3254901960784314" d="M 293 131 L 302 132.5 L 268.5 162 L 267 162 L 268.5 157 L 269.5 160 L 278 152.5 Q 272.8 152.8 270.5 150 L 269.5 156 L 269 148 L 273.5 151 L 277.5 151 L 281 148.5 L 282.5 144 L 283 146.5 L 282.5 148 L 299 133.5 L 294.5 132 L 292 137 L 288.5 138 L 288.5 137 L 293 133.5 L 293 131 Z " /><path fill="rgb(239,164,164)" stroke="rgb(239,164,164)" stroke-width="1" opacity="0.3254901960784314" d="M 94.5 132 L 97 132.5 L 95 137 L 91 134.5 Q 90.2 131.9 93.5 133 L 94.5 132 Z M 95 133 L 93 136 L 95 135 L 95 133 Z " /><path fill="rgb(239,164,164)" stroke="rgb(239,164,164)" stroke-width="1" opacity="0.3254901960784314" d="M 25.5 133 L 28 133.5 Q 18.5 135.3 13 140 L 11 147.5 L 17.5 156 L 34 164.5 L 32.5 165 Q 19.9 160.6 12 151.5 L 10 144.5 L 14.5 138 L 25.5 133 Z " /><path fill="rgb(239,164,164)" stroke="rgb(239,164,164)" stroke-width="1" opacity="0.3254901960784314" d="M 79 135 L 81 135.5 L 79 136.5 L 79 135 Z " /><path fill="rgb(239,164,164)" stroke="rgb(239,164,164)" stroke-width="1" opacity="0.3254901960784314" d="M 283 137 L 286 137.5 L 284 138 L 283.5 143 L 283 137 Z " /><path fill="rgb(239,164,164)" stroke="rgb(239,164,164)" stroke-width="1" opacity="0.3254901960784314" d="M 225.5 140 L 227 147.5 L 226 147.5 L 225.5 140 Z " /><path fill="rgb(239,164,164)" stroke="rgb(239,164,164)" stroke-width="1" opacity="0.3254901960784314" d="M 27 146 Q 31.1 144.3 30 148.5 L 28.5 148 Q 25.9 148.7 27 146 Z " /><path fill="rgb(239,164,164)" stroke="rgb(239,164,164)" stroke-width="1" opacity="0.3254901960784314" d="M 162.5 147 L 165.5 151 L 167 151.5 L 165.5 152 L 163 151 L 162.5 149 L 158.5 166 L 158 162.5 L 162.5 147 Z " /><path fill="rgb(239,164,164)" stroke="rgb(239,164,164)" stroke-width="1" opacity="0.3254901960784314" d="M 215.5 149 Q 216.9 151.6 221.5 151 L 225 154.5 L 226 159.5 L 222.5 164 L 205.5 171 L 205.5 170 Q 216.6 167.6 224 161.5 L 225 156.5 L 221.5 152 L 218.5 152 L 215 150 Q 216.3 153.3 211.5 152 L 211.5 151 L 215.5 149 Z " /><path fill="rgb(239,164,164)" stroke="rgb(239,164,164)" stroke-width="1" opacity="0.3254901960784314" d="M 227.5 149 L 236 184.5 L 236 189.5 L 229 195 L 228 191 L 223.5 189 Q 216 190.5 212.5 188 L 212.5 190 L 208 189.5 L 217 183.5 Q 218.3 176.3 213.5 175 L 199.5 173 L 199.5 175 L 194 174.5 L 203.5 171 L 203.5 172 L 202 172.5 L 211.5 173 L 217 176.5 L 218 183.5 L 214.5 188 Q 225.3 186.3 229 191.5 Q 228.3 193.8 230.5 193 L 235 189.5 L 235 184.5 L 227 152.5 L 227.5 149 Z " /><path fill="rgb(239,164,164)" stroke="rgb(239,164,164)" stroke-width="1" opacity="0.3254901960784314" d="M 168.5 152 L 173 152.5 L 169.5 154 L 168.5 152 Z " /><path fill="rgb(239,164,164)" stroke="rgb(239,164,164)" stroke-width="1" opacity="0.3254901960784314" d="M 167.5 154 L 164 158.5 L 163 162.5 L 166.5 167 L 169 167.5 L 166.5 168 Q 162.4 166.1 162 160.5 L 165.5 155 L 167.5 154 Z " /><path fill="rgb(239,164,164)" stroke="rgb(239,164,164)" stroke-width="1" opacity="0.3254901960784314" d="M 64 164 Q 67 162.8 66 166.5 L 64 165.5 L 64 164 Z " /><path fill="rgb(239,164,164)" stroke="rgb(239,164,164)" stroke-width="1" opacity="0.3254901960784314" d="M 259.5 164 L 262.5 165 L 264.5 164 L 261.5 168 L 247.5 180 L 246 178.5 L 244 169.5 L 245.5 169 L 251 172.5 L 248.5 173 L 246 171.5 L 247.5 179 L 253 172 L 257 169.5 L 259.5 164 Z M 260 165 L 260 168 L 262 167 L 260 165 Z " /><path fill="rgb(239,164,164)" stroke="rgb(239,164,164)" stroke-width="1" opacity="0.3254901960784314" d="M 37.5 166 L 88 191.5 L 86.5 191 L 37.5 167 L 37.5 166 Z " /><path fill="rgb(239,164,164)" stroke="rgb(239,164,164)" stroke-width="1" opacity="0.3254901960784314" d="M 77.5 166 L 81.5 173 L 84.5 175 L 117 192 L 118 181.5 L 115.5 183 Q 107.5 184.5 106 179.5 L 104.5 171 L 100.5 173 L 100.5 172 L 102.5 172 L 106.5 168 L 107 169.5 Q 104.3 171.3 106 177.5 L 109.5 182 Q 118 183.5 119.5 178 L 120 179.5 Q 117.1 185.1 117.5 194 L 72 169.5 L 77.5 166 Z M 77 168 L 75 171 L 78 172 L 79 172 L 77 168 Z " /><path fill="rgb(239,164,164)" stroke="rgb(239,164,164)" stroke-width="1" opacity="0.3254901960784314" d="M 92.5 166 L 93 167.5 L 87.5 174 L 85 173.5 L 90 170.5 L 92.5 166 Z " /><path fill="rgb(239,164,164)" stroke="rgb(239,164,164)" stroke-width="1" opacity="0.3254901960784314" d="M 157.5 167 L 158 170.5 L 156.5 175 L 156 171.5 L 157.5 167 Z " /><path fill="rgb(239,164,164)" stroke="rgb(239,164,164)" stroke-width="1" opacity="0.3254901960784314" d="M 176.5 167 L 177 169 L 172.5 170 L 170 168.5 L 176.5 167 Z " /><path fill="rgb(239,164,164)" stroke="rgb(239,164,164)" stroke-width="1" opacity="0.3254901960784314" d="M 93.5 169 L 99 172.5 L 96.5 173 L 93.5 169 Z " /><path fill="rgb(239,164,164)" stroke="rgb(239,164,164)" stroke-width="1" opacity="0.3254901960784314" d="M 169.5 170 L 171 170.5 L 155.5 177 L 155.5 176 L 169.5 170 Z " /><path fill="rgb(239,164,164)" stroke="rgb(239,164,164)" stroke-width="1" opacity="0.3254901960784314" d="M 132.5 187 L 139 191.5 L 137.5 191 L 132 189 Q 131.8 195 127 197.5 L 134.5 203 L 137.5 193 L 138 196.5 L 136 204 L 125 197.5 L 130 193.5 L 132.5 187 Z " /><path fill="rgb(239,164,164)" stroke="rgb(239,164,164)" stroke-width="1" opacity="0.3254901960784314" d="M 152 189 L 154.5 190 L 167 190.5 L 158 196.5 Q 156.8 203.8 161.5 205 L 164 205.5 L 161.5 206 L 158 203.5 L 157 196.5 L 159 193 L 163 191.5 L 154.5 191 L 153.5 190 L 150.5 202 L 150 198.5 L 152 189 Z " /><path fill="rgb(239,164,164)" stroke="rgb(239,164,164)" stroke-width="1" opacity="0.3254901960784314" d="M 89.5 192 L 124 211.5 L 122.5 211 L 90.5 194 L 89.5 192 Z " /><path fill="rgb(239,164,164)" stroke="rgb(239,164,164)" stroke-width="1" opacity="0.3254901960784314" d="M 149.5 203 L 150 205.5 L 147 210.5 L 155.5 216 Q 160.2 209.7 169 207.5 L 165 206.5 L 168.5 206 L 171.5 207 L 171.5 205 L 177 205.5 L 164.5 210 L 157 215.5 Q 157.8 217.8 155.5 217 L 146 210.5 L 149.5 203 Z " /><path fill="rgb(239,164,164)" stroke="rgb(239,164,164)" stroke-width="1" opacity="0.3254901960784314" d="M 238.5 203 Q 241.5 202.2 240 206 L 236 205.5 L 238.5 203 Z " /><path fill="rgb(239,164,164)" stroke="rgb(239,164,164)" stroke-width="1" opacity="0.3254901960784314" d="M 217.5 204 L 219 204.5 L 185.5 236 L 183.5 236 L 179 232.5 L 183.5 231 L 183.5 232 Q 181.3 231.3 182 233.5 L 184.5 235 L 215 207.5 L 212.5 207 L 200.5 211 L 200.5 210 L 217.5 204 Z " /><path fill="rgb(239,164,164)" stroke="rgb(239,164,164)" stroke-width="1" opacity="0.3254901960784314" d="M 253.5 207 L 260 236.5 L 259 236.5 L 253 210.5 L 253.5 207 Z " /><path fill="rgb(239,164,164)" stroke="rgb(239,164,164)" stroke-width="1" opacity="0.3254901960784314" d="M 125.5 212 L 132 216.5 L 130.5 216 Q 125.9 214.8 125.5 212 Z " /><path fill="rgb(239,164,164)" stroke="rgb(239,164,164)" stroke-width="1" opacity="0.3254901960784314" d="M 193.5 212 L 196 212.5 L 188 215.5 L 191 217 L 193 220.5 L 193 224.5 L 188.5 230 L 185.5 231 L 185.5 230 L 191 226.5 L 192 220.5 L 186 215.5 L 193.5 212 Z " /><path fill="rgb(239,164,164)" stroke="rgb(239,164,164)" stroke-width="1" opacity="0.3254901960784314" d="M 131.5 218 L 132 220.5 L 131 220.5 L 131.5 218 Z " /><path fill="rgb(239,164,164)" stroke="rgb(239,164,164)" stroke-width="1" opacity="0.3254901960784314" d="M 241.5 218 Q 244.1 217.2 243 220.5 L 246 232.5 L 245 232.5 L 241.5 219 L 238 223.5 Q 241 225.5 240 231.5 L 239 234 L 244 237.5 L 240.5 235 L 237 234.5 Q 240 232.5 239 226.5 L 237 222.5 L 241.5 218 Z " /><path fill="rgb(239,164,164)" stroke="rgb(239,164,164)" stroke-width="1" opacity="0.3254901960784314" d="M 130.5 222 L 131 224.5 L 130 224.5 L 130.5 222 Z " /><path fill="rgb(239,164,164)" stroke="rgb(239,164,164)" stroke-width="1" opacity="0.3254901960784314" d="M 143 224 L 145.5 224 L 150 227.5 Q 150.8 229.8 148.5 229 L 148.5 227 L 144.5 225 L 143 225.5 L 143 224 Z " /><path fill="rgb(239,164,164)" stroke="rgb(239,164,164)" stroke-width="1" opacity="0.3254901960784314" d="M 129.5 226 L 130 229.5 L 124.5 249 L 124 246.5 L 129.5 226 Z " /><path fill="rgb(239,164,164)" stroke="rgb(239,164,164)" stroke-width="1" opacity="0.3254901960784314" d="M 142.5 227 L 143 230 L 146.5 229 L 146.5 230 L 141.5 233 L 141 231 L 143 230.5 L 142.5 227 Z " /><path fill="rgb(239,164,164)" stroke="rgb(239,164,164)" stroke-width="1" opacity="0.3254901960784314" d="M 246.5 234 L 249 245.5 L 248 245.5 L 246.5 234 Z " /><path fill="rgb(239,164,164)" stroke="rgb(239,164,164)" stroke-width="1" opacity="0.3254901960784314" d="M 260.5 238 L 262 245.5 L 261 245.5 L 260.5 238 Z " /><path fill="rgb(239,164,164)" stroke="rgb(239,164,164)" stroke-width="1" opacity="0.3254901960784314" d="M 244.5 239 L 245 244.5 L 244 245.5 L 248 249.5 L 248.5 251 L 249.5 247 L 252 258.5 L 250.5 258 L 247 257 L 248 251.5 L 244.5 247 Q 242.3 247.8 243 245.5 L 244.5 239 Z M 250 251 L 248 256 L 251 257 L 250 251 Z " /><path fill="rgb(239,164,164)" stroke="rgb(239,164,164)" stroke-width="1" opacity="0.3254901960784314" d="M 139.5 241 L 142 243.5 L 138 247.5 Q 139.5 255.1 136 254 L 138.5 243 L 140.5 244 L 139.5 241 Z " /><path fill="rgb(239,164,164)" stroke="rgb(239,164,164)" stroke-width="1" opacity="0.3254901960784314" d="M 204.5 246 L 208 247.5 L 206.5 248 L 204.5 247 L 203.5 249 L 220.5 261 L 219 258.5 L 219.5 256 L 222.5 261 L 224 261.5 L 222 262.5 L 224 263.5 L 222.5 264 L 202 248.5 L 204.5 246 Z " /><path fill="rgb(239,164,164)" stroke="rgb(239,164,164)" stroke-width="1" opacity="0.3254901960784314" d="M 172.5 247 L 169 251.5 L 123.5 302 L 123 299.5 L 125 299.5 L 124 295.5 L 132 292 L 142 278 L 144 277.5 Q 141.5 276 143 270.5 L 140 265 L 144.5 264 L 144.5 265 L 141 266.5 Q 145.3 269.3 144.5 277 L 160 260.5 L 160 259 L 163 257.5 L 169 250.5 L 165.5 250 L 158.5 253 L 159.5 251 L 172.5 247 Z M 125 295 L 125 298 L 128 296 L 125 295 Z " /><path fill="rgb(239,164,164)" stroke="rgb(239,164,164)" stroke-width="1" opacity="0.3254901960784314" d="M 262.5 247 L 264 254.5 L 263 254.5 L 262.5 247 Z " /><path fill="rgb(239,164,164)" stroke="rgb(239,164,164)" stroke-width="1" opacity="0.3254901960784314" d="M 209.5 248 L 213.5 248 Q 214.9 252 220 251 L 219.5 254 L 219 252 Q 214.7 252.7 213.5 249 L 209.5 249 L 209.5 248 Z " /><path fill="rgb(239,164,164)" stroke="rgb(239,164,164)" stroke-width="1" opacity="0.3254901960784314" d="M 123.5 250 L 124 252.5 L 123 252.5 L 123.5 250 Z " /><path fill="rgb(239,164,164)" stroke="rgb(239,164,164)" stroke-width="1" opacity="0.3254901960784314" d="M 185.5 252 L 196 259.5 L 193.5 258 L 185.5 253 L 161 278.5 L 103.5 344 L 102 343.5 L 108 338.5 Q 144.6 293.1 185.5 252 Z " /><path fill="rgb(239,164,164)" stroke="rgb(239,164,164)" stroke-width="1" opacity="0.3254901960784314" d="M 122.5 254 L 123 256.5 L 119.5 268 L 119 265.5 L 122.5 254 Z " /><path fill="rgb(239,164,164)" stroke="rgb(239,164,164)" stroke-width="1" opacity="0.3254901960784314" d="M 158.5 254 L 159 256.5 Q 155 262.5 146.5 264 L 146.5 263 Q 154.3 261.8 158 256.5 L 158.5 254 Z " /><path fill="rgb(239,164,164)" stroke="rgb(239,164,164)" stroke-width="1" opacity="0.3254901960784314" d="M 264.5 256 L 266 263.5 L 265 263.5 L 264.5 256 Z " /><path fill="rgb(239,164,164)" stroke="rgb(239,164,164)" stroke-width="1" opacity="0.3254901960784314" d="M 197.5 260 L 236.5 289 L 248.5 297 L 258 300.5 L 254.5 301 L 226.5 283 L 200.5 264 L 197.5 260 Z " /><path fill="rgb(239,164,164)" stroke="rgb(239,164,164)" stroke-width="1" opacity="0.3254901960784314" d="M 266.5 265 L 269 277.5 L 268 277.5 L 266.5 265 Z " /><path fill="rgb(239,164,164)" stroke="rgb(239,164,164)" stroke-width="1" opacity="0.3254901960784314" d="M 253.5 267 L 255 270.5 L 253.5 270 L 252 269.5 L 253.5 267 Z " /><path fill="rgb(239,164,164)" stroke="rgb(239,164,164)" stroke-width="1" opacity="0.3254901960784314" d="M 118.5 269 L 119 271.5 L 113.5 290 L 113 287.5 L 118.5 269 Z " /><path fill="rgb(239,164,164)" stroke="rgb(239,164,164)" stroke-width="1" opacity="0.3254901960784314" d="M 269.5 279 L 271 290.5 L 270 290.5 L 269.5 279 Z " /><path fill="rgb(239,164,164)" stroke="rgb(239,164,164)" stroke-width="1" opacity="0.3254901960784314" d="M 255 285 L 258 286.5 L 255 287 L 255 285 Z " /><path fill="rgb(239,164,164)" stroke="rgb(239,164,164)" stroke-width="1" opacity="0.3254901960784314" d="M 112.5 291 L 113 293.5 L 111.5 297 L 111 294.5 L 112.5 291 Z " /><path fill="rgb(239,164,164)" stroke="rgb(239,164,164)" stroke-width="1" opacity="0.3254901960784314" d="M 269.5 292 L 270 295.5 L 266.5 300 L 262.5 301 L 262.5 300 L 264.5 300 L 269 295.5 L 269.5 292 Z " /><path fill="rgb(239,164,164)" stroke="rgb(239,164,164)" stroke-width="1" opacity="0.3254901960784314" d="M 110.5 298 L 111 300.5 L 109.5 304 L 109 301.5 L 110.5 298 Z " /><path fill="rgb(239,164,164)" stroke="rgb(239,164,164)" stroke-width="1" opacity="0.3254901960784314" d="M 108.5 305 L 109 307.5 L 107.5 311 L 107 308.5 L 108.5 305 Z " /><path fill="rgb(239,164,164)" stroke="rgb(239,164,164)" stroke-width="1" opacity="0.3254901960784314" d="M 106.5 312 L 107 314.5 L 104 324.5 L 95 335.5 L 95 340.5 L 99 343.5 L 97.5 344 Q 92.8 342.7 94 335.5 L 103 324.5 L 106.5 312 Z " /></svg>