<svg width="512" height="512" version="1.1" xmlns="http://www.w3.org/2000/svg" desc="Created with imagetracer.js version 0.2.1" ><path fill="rgb(1,0,1)" stroke="rgb(1,0,1)" stroke-width="1" opacity="0.7843137254901961" d="M 264.5 0 L 267 0.5 L 264.5 1 L 264.5 0 Z " /><path fill="rgb(1,0,1)" stroke="rgb(1,0,1)" stroke-width="1" opacity="0.7843137254901961" d="M 270.5 0 L 275 0.5 L 270.5 1 L 270.5 0 Z " /><path fill="rgb(1,0,1)" stroke="rgb(1,0,1)" stroke-width="1" opacity="0.7843137254901961" d="M 282.5 3 L 283.5 5 L 282.5 3 Z " /><path fill="rgb(1,0,1)" stroke="rgb(1,0,1)" stroke-width="1" opacity="0.7843137254901961" d="M 254.5 4 L 249.5 10 L 254.5 4 Z " /><path fill="rgb(1,0,1)" stroke="rgb(1,0,1)" stroke-width="1" opacity="0.7843137254901961" d="M 288.5 9 L 289.5 11 L 288.5 9 Z " /><path fill="rgb(1,0,1)" stroke="rgb(1,0,1)" stroke-width="1" opacity="0.7843137254901961" d="M 246.5 16 L 247 19.5 L 246 19.5 L 246.5 16 Z " /><path fill="rgb(1,0,1)" stroke="rgb(1,0,1)" stroke-width="1" opacity="0.7843137254901961" d="M 269.5 95 L 268.5 97 L 269.5 95 Z " /><path fill="rgb(1,0,1)" stroke="rgb(1,0,1)" stroke-width="1" opacity="0.7843137254901961" d="M 329.5 128 L 330.5 130 L 329.5 128 Z " /><path fill="rgb(1,0,1)" stroke="rgb(1,0,1)" stroke-width="1" opacity="0.7843137254901961" d="M 208.5 129 L 207.5 131 L 208.5 129 Z " /><path fill="rgb(1,0,1)" stroke="rgb(1,0,1)" stroke-width="1" opacity="0.7843137254901961" d="M 206.5 132 L 205.5 134 L 206.5 132 Z " /><path fill="rgb(1,0,1)" stroke="rgb(1,0,1)" stroke-width="1" opacity="0.7843137254901961" d="M 332.5 133 L 333.5 135 L 332.5 133 Z " /><path fill="rgb(1,0,1)" stroke="rgb(1,0,1)" stroke-width="1" opacity="0.7843137254901961" d="M 204.5 135 L 203.5 137 L 204.5 135 Z " /><path fill="rgb(1,0,1)" stroke="rgb(1,0,1)" stroke-width="1" opacity="0.7843137254901961" d="M 334.5 136 L 335.5 138 L 334.5 136 Z " /><path fill="rgb(1,0,1)" stroke="rgb(1,0,1)" stroke-width="1" opacity="0.7843137254901961" d="M 202.5 138 L 200.5 141 L 202.5 138 Z " /><path fill="rgb(1,0,1)" stroke="rgb(1,0,1)" stroke-width="1" opacity="0.7843137254901961" d="M 336.5 139 L 337.5 141 L 336.5 139 Z " /><path fill="rgb(1,0,1)" stroke="rgb(1,0,1)" stroke-width="1" opacity="0.7843137254901961" d="M 198.5 143 L 190.5 152 L 198.5 143 Z " /><path fill="rgb(1,0,1)" stroke="rgb(1,0,1)" stroke-width="1" opacity="0.7843137254901961" d="M 339.5 143 L 340.5 145 L 339.5 143 Z " /><path fill="rgb(1,0,1)" stroke="rgb(1,0,1)" stroke-width="1" opacity="0.7843137254901961" d="M 343.5 148 L 352.5 158 L 343.5 148 Z " /><path fill="rgb(1,0,1)" stroke="rgb(1,0,1)" stroke-width="1" opacity="0.7843137254901961" d="M 245.5 150 L 244.5 152 L 245.5 150 Z " /><path fill="rgb(1,0,1)" stroke="rgb(1,0,1)" stroke-width="1" opacity="0.7843137254901961" d="M 188.5 152 L 186.5 155 L 188.5 152 Z " /><path fill="rgb(1,0,1)" stroke="rgb(1,0,1)" stroke-width="1" opacity="0.7843137254901961" d="M 293.5 153 L 294.5 155 L 293.5 153 Z " /><path fill="rgb(1,0,1)" stroke="rgb(1,0,1)" stroke-width="1" opacity="0.7843137254901961" d="M 184.5 155 L 183.5 157 L 184.5 155 Z " /><path fill="rgb(1,0,1)" stroke="rgb(1,0,1)" stroke-width="1" opacity="0.7843137254901961" d="M 296.5 158 L 297.5 160 L 296.5 158 Z " /><path fill="rgb(1,0,1)" stroke="rgb(1,0,1)" stroke-width="1" opacity="0.7843137254901961" d="M 355.5 159 L 357.5 162 L 355.5 159 Z " /><path fill="rgb(1,0,1)" stroke="rgb(1,0,1)" stroke-width="1" opacity="0.7843137254901961" d="M 239.5 160 L 238.5 162 L 239.5 160 Z " /><path fill="rgb(1,0,1)" stroke="rgb(1,0,1)" stroke-width="1" opacity="0.7843137254901961" d="M 237.5 163 L 236.5 165 L 237.5 163 Z " /><path fill="rgb(1,0,1)" stroke="rgb(1,0,1)" stroke-width="1" opacity="0.7843137254901961" d="M 360.5 163 L 361.5 165 L 360.5 163 Z " /><path fill="rgb(1,0,1)" stroke="rgb(1,0,1)" stroke-width="1" opacity="0.7843137254901961" d="M 300.5 164 L 301.5 166 L 300.5 164 Z " /><path fill="rgb(1,0,1)" stroke="rgb(1,0,1)" stroke-width="1" opacity="0.7843137254901961" d="M 363.5 165 L 364.5 167 L 363.5 165 Z " /><path fill="rgb(1,0,1)" stroke="rgb(1,0,1)" stroke-width="1" opacity="0.7843137254901961" d="M 235.5 166 L 234.5 168 L 235.5 166 Z " /><path fill="rgb(1,0,1)" stroke="rgb(1,0,1)" stroke-width="1" opacity="0.7843137254901961" d="M 303.5 168 L 304.5 170 L 303.5 168 Z " /><path fill="rgb(1,0,1)" stroke="rgb(1,0,1)" stroke-width="1" opacity="0.7843137254901961" d="M 232.5 170 L 230.5 173 L 232.5 170 Z " /><path fill="rgb(1,0,1)" stroke="rgb(1,0,1)" stroke-width="1" opacity="0.7843137254901961" d="M 305.5 171 L 308.5 175 L 305.5 171 Z " /><path fill="rgb(1,0,1)" stroke="rgb(1,0,1)" stroke-width="1" opacity="0.7843137254901961" d="M 374.5 172 L 375.5 174 L 374.5 172 Z " /><path fill="rgb(1,0,1)" stroke="rgb(1,0,1)" stroke-width="1" opacity="0.7843137254901961" d="M 229.5 174 L 226.5 178 L 229.5 174 Z " /><path fill="rgb(1,0,1)" stroke="rgb(1,0,1)" stroke-width="1" opacity="0.7843137254901961" d="M 379.5 175 L 380.5 177 L 379.5 175 Z " /><path fill="rgb(1,0,1)" stroke="rgb(1,0,1)" stroke-width="1" opacity="0.7843137254901961" d="M 311.5 178 L 324.5 192 L 311.5 178 Z " /><path fill="rgb(1,0,1)" stroke="rgb(1,0,1)" stroke-width="1" opacity="0.7843137254901961" d="M 221.5 183 L 218.5 187 L 221.5 183 Z " /><path fill="rgb(1,0,1)" stroke="rgb(1,0,1)" stroke-width="1" opacity="0.7843137254901961" d="M 215.5 188 L 212.5 192 L 215.5 188 Z " /><path fill="rgb(1,0,1)" stroke="rgb(1,0,1)" stroke-width="1" opacity="0.7843137254901961" d="M 210.5 192 L 209.5 194 L 210.5 192 Z " /><path fill="rgb(1,0,1)" stroke="rgb(1,0,1)" stroke-width="1" opacity="0.7843137254901961" d="M 327.5 193 L 329.5 196 L 327.5 193 Z " /><path fill="rgb(1,0,1)" stroke="rgb(1,0,1)" stroke-width="1" opacity="0.7843137254901961" d="M 205.5 195 L 204.5 197 L 205.5 195 Z " /><path fill="rgb(1,0,1)" stroke="rgb(1,0,1)" stroke-width="1" opacity="0.7843137254901961" d="M 332.5 197 L 334.5 200 L 332.5 197 Z " /><path fill="rgb(1,0,1)" stroke="rgb(1,0,1)" stroke-width="1" opacity="0.7843137254901961" d="M 337.5 201 L 338.5 203 L 337.5 201 Z " /><path fill="rgb(1,0,1)" stroke="rgb(1,0,1)" stroke-width="1" opacity="0.7843137254901961" d="M 340.5 203 L 341.5 205 L 340.5 203 Z " /><path fill="rgb(1,0,1)" stroke="rgb(1,0,1)" stroke-width="1" opacity="0.7843137254901961" d="M 343.5 205 L 344.5 207 L 343.5 205 Z " /><path fill="rgb(1,0,1)" stroke="rgb(1,0,1)" stroke-width="1" opacity="0.7843137254901961" d="M 12.5 216 L 14 216.5 L 11.5 218 L 12.5 216 Z " /><path fill="rgb(1,0,1)" stroke="rgb(1,0,1)" stroke-width="1" opacity="0.7843137254901961" d="M 9.5 218 L 5.5 223 L 9.5 218 Z " /><path fill="rgb(1,0,1)" stroke="rgb(1,0,1)" stroke-width="1" opacity="0.7843137254901961" d="M 502.5 218 L 505.5 222 L 502.5 218 Z " /><path fill="rgb(1,0,1)" stroke="rgb(1,0,1)" stroke-width="1" opacity="0.7843137254901961" d="M 103 230 L 105 230.5 L 103 231.5 L 103 230 Z " /><path fill="rgb(1,0,1)" stroke="rgb(1,0,1)" stroke-width="1" opacity="0.7843137254901961" d="M 1.5 231 L 2 233.5 L 1 233.5 L 1.5 231 Z " /><path fill="rgb(1,0,1)" stroke="rgb(1,0,1)" stroke-width="1" opacity="0.7843137254901961" d="M 510.5 232 L 511 240.5 L 510 240.5 L 510.5 232 Z " /><path fill="rgb(1,0,1)" stroke="rgb(1,0,1)" stroke-width="1" opacity="0.7843137254901961" d="M 1.5 237 L 2 240.5 L 1 240.5 L 1.5 237 Z " /><path fill="rgb(1,0,1)" stroke="rgb(1,0,1)" stroke-width="1" opacity="0.7843137254901961" d="M 5.5 249 L 10.5 255 L 5.5 249 Z " /><path fill="rgb(1,0,1)" stroke="rgb(1,0,1)" stroke-width="1" opacity="0.7843137254901961" d="M 505.5 251 L 503.5 254 L 505.5 251 Z " /><path fill="rgb(1,0,1)" stroke="rgb(1,0,1)" stroke-width="1" opacity="0.7843137254901961" d="M 501.5 254 L 500.5 256 L 501.5 254 Z " /><path fill="rgb(1,0,1)" stroke="rgb(1,0,1)" stroke-width="1" opacity="0.7843137254901961" d="M 378.5 257 L 381 257.5 L 378.5 258 L 378.5 257 Z " /><path fill="rgb(1,0,1)" stroke="rgb(1,0,1)" stroke-width="1" opacity="0.7843137254901961" d="M 20.5 258 L 25 258.5 L 20.5 259 L 20.5 258 Z " /><path fill="rgb(1,0,1)" stroke="rgb(1,0,1)" stroke-width="1" opacity="0.7843137254901961" d="M 170.5 258 L 171.5 260 L 170.5 258 Z " /><path fill="rgb(1,0,1)" stroke="rgb(1,0,1)" stroke-width="1" opacity="0.7843137254901961" d="M 373.5 258 L 376 258.5 L 373.5 259 L 373.5 258 Z " /><path fill="rgb(1,0,1)" stroke="rgb(1,0,1)" stroke-width="1" opacity="0.7843137254901961" d="M 31.5 259 L 36 259.5 L 31.5 260 L 31.5 259 Z " /><path fill="rgb(1,0,1)" stroke="rgb(1,0,1)" stroke-width="1" opacity="0.7843137254901961" d="M 366.5 259 L 370 259.5 L 366.5 260 L 366.5 259 Z " /><path fill="rgb(1,0,1)" stroke="rgb(1,0,1)" stroke-width="1" opacity="0.7843137254901961" d="M 39.5 260 L 43 260.5 L 39.5 261 L 39.5 260 Z " /><path fill="rgb(1,0,1)" stroke="rgb(1,0,1)" stroke-width="1" opacity="0.7843137254901961" d="M 173.5 260 L 174.5 262 L 173.5 260 Z " /><path fill="rgb(1,0,1)" stroke="rgb(1,0,1)" stroke-width="1" opacity="0.7843137254901961" d="M 356.5 260 L 362 260.5 L 356.5 261 L 356.5 260 Z " /><path fill="rgb(1,0,1)" stroke="rgb(1,0,1)" stroke-width="1" opacity="0.7843137254901961" d="M 343.5 261 L 347 261.5 L 343.5 262 L 343.5 261 Z " /><path fill="rgb(1,0,1)" stroke="rgb(1,0,1)" stroke-width="1" opacity="0.7843137254901961" d="M 177.5 263 L 181.5 268 L 177.5 263 Z " /><path fill="rgb(1,0,1)" stroke="rgb(1,0,1)" stroke-width="1" opacity="0.7843137254901961" d="M 337.5 263 L 339 263.5 L 336.5 265 L 337.5 263 Z " /><path fill="rgb(1,0,1)" stroke="rgb(1,0,1)" stroke-width="1" opacity="0.7843137254901961" d="M 334.5 265 L 330.5 270 L 334.5 265 Z " /><path fill="rgb(1,0,1)" stroke="rgb(1,0,1)" stroke-width="1" opacity="0.7843137254901961" d="M 182.5 269 L 183.5 271 L 182.5 269 Z " /><path fill="rgb(1,0,1)" stroke="rgb(1,0,1)" stroke-width="1" opacity="0.7843137254901961" d="M 329.5 271 L 328.5 273 L 329.5 271 Z " /><path fill="rgb(1,0,1)" stroke="rgb(1,0,1)" stroke-width="1" opacity="0.7843137254901961" d="M 187.5 281 L 188 283.5 L 187 283.5 L 187.5 281 Z " /><path fill="rgb(1,0,1)" stroke="rgb(1,0,1)" stroke-width="1" opacity="0.7843137254901961" d="M 188.5 286 L 189 288.5 L 188 288.5 L 188.5 286 Z " /><path fill="rgb(1,0,1)" stroke="rgb(1,0,1)" stroke-width="1" opacity="0.7843137254901961" d="M 139.5 292 L 141.5 295 L 139.5 292 Z " /><path fill="rgb(1,0,1)" stroke="rgb(1,0,1)" stroke-width="1" opacity="0.7843137254901961" d="M 189.5 292 L 190 294.5 L 189 294.5 L 189.5 292 Z " /><path fill="rgb(1,0,1)" stroke="rgb(1,0,1)" stroke-width="1" opacity="0.7843137254901961" d="M 190.5 301 L 191 306.5 L 190 306.5 L 190.5 301 Z " /><path fill="rgb(1,0,1)" stroke="rgb(1,0,1)" stroke-width="1" opacity="0.7843137254901961" d="M 145.5 303 L 146 305.5 L 145 305.5 L 145.5 303 Z " /><path fill="rgb(1,0,1)" stroke="rgb(1,0,1)" stroke-width="1" opacity="0.7843137254901961" d="M 146.5 309 L 147 314.5 L 146 314.5 L 146.5 309 Z " /><path fill="rgb(1,0,1)" stroke="rgb(1,0,1)" stroke-width="1" opacity="0.7843137254901961" d="M 266.5 321 L 269 321.5 L 266.5 322 L 266.5 321 Z " /><path fill="rgb(1,0,1)" stroke="rgb(1,0,1)" stroke-width="1" opacity="0.7843137254901961" d="M 147.5 324 L 148 334.5 L 147 334.5 L 147.5 324 Z " /><path fill="rgb(1,0,1)" stroke="rgb(1,0,1)" stroke-width="1" opacity="0.7843137254901961" d="M 254.5 325 L 253.5 327 L 254.5 325 Z " /><path fill="rgb(1,0,1)" stroke="rgb(1,0,1)" stroke-width="1" opacity="0.7843137254901961" d="M 284.5 330 L 285.5 332 L 284.5 330 Z " /><path fill="rgb(1,0,1)" stroke="rgb(1,0,1)" stroke-width="1" opacity="0.7843137254901961" d="M 248.5 331 L 243.5 337 L 248.5 331 Z " /><path fill="rgb(1,0,1)" stroke="rgb(1,0,1)" stroke-width="1" opacity="0.7843137254901961" d="M 190.5 332 L 191 336.5 L 190 336.5 L 190.5 332 Z " /><path fill="rgb(1,0,1)" stroke="rgb(1,0,1)" stroke-width="1" opacity="0.7843137254901961" d="M 286.5 333 L 287.5 335 L 286.5 333 Z " /><path fill="rgb(1,0,1)" stroke="rgb(1,0,1)" stroke-width="1" opacity="0.7843137254901961" d="M 289.5 337 L 290.5 339 L 289.5 337 Z " /><path fill="rgb(1,0,1)" stroke="rgb(1,0,1)" stroke-width="1" opacity="0.7843137254901961" d="M 291.5 340 L 292.5 342 L 291.5 340 Z " /><path fill="rgb(1,0,1)" stroke="rgb(1,0,1)" stroke-width="1" opacity="0.7843137254901961" d="M 239.5 341 L 234.5 347 L 239.5 341 Z " /><path fill="rgb(1,0,1)" stroke="rgb(1,0,1)" stroke-width="1" opacity="0.7843137254901961" d="M 189.5 343 L 190 347.5 L 189 347.5 L 189.5 343 Z " /><path fill="rgb(1,0,1)" stroke="rgb(1,0,1)" stroke-width="1" opacity="0.7843137254901961" d="M 146.5 344 L 147 348.5 L 146 348.5 L 146.5 344 Z " /><path fill="rgb(1,0,1)" stroke="rgb(1,0,1)" stroke-width="1" opacity="0.7843137254901961" d="M 297.5 349 L 298.5 351 L 297.5 349 Z " /><path fill="rgb(1,0,1)" stroke="rgb(1,0,1)" stroke-width="1" opacity="0.7843137254901961" d="M 188.5 351 L 189 353.5 L 188 353.5 L 188.5 351 Z " /><path fill="rgb(1,0,1)" stroke="rgb(1,0,1)" stroke-width="1" opacity="0.7843137254901961" d="M 230.5 351 L 225.5 357 L 230.5 351 Z " /><path fill="rgb(1,0,1)" stroke="rgb(1,0,1)" stroke-width="1" opacity="0.7843137254901961" d="M 299.5 352 L 300.5 354 L 299.5 352 Z " /><path fill="rgb(1,0,1)" stroke="rgb(1,0,1)" stroke-width="1" opacity="0.7843137254901961" d="M 145.5 353 L 146 356.5 L 145 356.5 L 145.5 353 Z " /><path fill="rgb(1,0,1)" stroke="rgb(1,0,1)" stroke-width="1" opacity="0.7843137254901961" d="M 187.5 358 L 188 360.5 L 187 360.5 L 187.5 358 Z " /><path fill="rgb(1,0,1)" stroke="rgb(1,0,1)" stroke-width="1" opacity="0.7843137254901961" d="M 144.5 360 L 145 362.5 L 144 362.5 L 144.5 360 Z " /><path fill="rgb(1,0,1)" stroke="rgb(1,0,1)" stroke-width="1" opacity="0.7843137254901961" d="M 304.5 360 L 305.5 362 L 304.5 360 Z " /><path fill="rgb(1,0,1)" stroke="rgb(1,0,1)" stroke-width="1" opacity="0.7843137254901961" d="M 221.5 361 L 216.5 367 L 221.5 361 Z " /><path fill="rgb(1,0,1)" stroke="rgb(1,0,1)" stroke-width="1" opacity="0.7843137254901961" d="M 309.5 368 L 310.5 370 L 309.5 368 Z " /><path fill="rgb(1,0,1)" stroke="rgb(1,0,1)" stroke-width="1" opacity="0.7843137254901961" d="M 185.5 369 L 186 371.5 L 185 371.5 L 185.5 369 Z " /><path fill="rgb(1,0,1)" stroke="rgb(1,0,1)" stroke-width="1" opacity="0.7843137254901961" d="M 142.5 371 L 143 373.5 L 142 373.5 L 142.5 371 Z " /><path fill="rgb(1,0,1)" stroke="rgb(1,0,1)" stroke-width="1" opacity="0.7843137254901961" d="M 212.5 371 L 208.5 376 L 212.5 371 Z " /><path fill="rgb(1,0,1)" stroke="rgb(1,0,1)" stroke-width="1" opacity="0.7843137254901961" d="M 312.5 373 L 313.5 375 L 312.5 373 Z " /><path fill="rgb(1,0,1)" stroke="rgb(1,0,1)" stroke-width="1" opacity="0.7843137254901961" d="M 184.5 374 L 185 376.5 L 184 376.5 L 184.5 374 Z " /><path fill="rgb(1,0,1)" stroke="rgb(1,0,1)" stroke-width="1" opacity="0.7843137254901961" d="M 141.5 376 L 142 378.5 L 141 378.5 L 141.5 376 Z " /><path fill="rgb(1,0,1)" stroke="rgb(1,0,1)" stroke-width="1" opacity="0.7843137254901961" d="M 314.5 376 L 315.5 378 L 314.5 376 Z " /><path fill="rgb(1,0,1)" stroke="rgb(1,0,1)" stroke-width="1" opacity="0.7843137254901961" d="M 205.5 379 L 200.5 385 L 205.5 379 Z " /><path fill="rgb(1,0,1)" stroke="rgb(1,0,1)" stroke-width="1" opacity="0.7843137254901961" d="M 265.5 379 L 266.5 381 L 265.5 379 Z " /><path fill="rgb(1,0,1)" stroke="rgb(1,0,1)" stroke-width="1" opacity="0.7843137254901961" d="M 140.5 381 L 141 383.5 L 140 383.5 L 140.5 381 Z " /><path fill="rgb(1,0,1)" stroke="rgb(1,0,1)" stroke-width="1" opacity="0.7843137254901961" d="M 317.5 381 L 318.5 383 L 317.5 381 Z " /><path fill="rgb(1,0,1)" stroke="rgb(1,0,1)" stroke-width="1" opacity="0.7843137254901961" d="M 267.5 382 L 268.5 384 L 267.5 382 Z " /><path fill="rgb(1,0,1)" stroke="rgb(1,0,1)" stroke-width="1" opacity="0.7843137254901961" d="M 261.5 383 L 257.5 388 L 261.5 383 Z " /><path fill="rgb(1,0,1)" stroke="rgb(1,0,1)" stroke-width="1" opacity="0.7843137254901961" d="M 269.5 385 L 270.5 387 L 269.5 385 Z " /><path fill="rgb(1,0,1)" stroke="rgb(1,0,1)" stroke-width="1" opacity="0.7843137254901961" d="M 197.5 388 L 192.5 394 L 197.5 388 Z " /><path fill="rgb(1,0,1)" stroke="rgb(1,0,1)" stroke-width="1" opacity="0.7843137254901961" d="M 271.5 388 L 272.5 390 L 271.5 388 Z " /><path fill="rgb(1,0,1)" stroke="rgb(1,0,1)" stroke-width="1" opacity="0.7843137254901961" d="M 322.5 389 L 323.5 391 L 322.5 389 Z " /><path fill="rgb(1,0,1)" stroke="rgb(1,0,1)" stroke-width="1" opacity="0.7843137254901961" d="M 273.5 391 L 274.5 393 L 273.5 391 Z " /><path fill="rgb(1,0,1)" stroke="rgb(1,0,1)" stroke-width="1" opacity="0.7843137254901961" d="M 253.5 392 L 248.5 398 L 253.5 392 Z " /><path fill="rgb(1,0,1)" stroke="rgb(1,0,1)" stroke-width="1" opacity="0.7843137254901961" d="M 325.5 394 L 326.5 396 L 325.5 394 Z " /><path fill="rgb(1,0,1)" stroke="rgb(1,0,1)" stroke-width="1" opacity="0.7843137254901961" d="M 179.5 396 L 180 398.5 L 179 398.5 L 179.5 396 Z " /><path fill="rgb(1,0,1)" stroke="rgb(1,0,1)" stroke-width="1" opacity="0.7843137254901961" d="M 189.5 397 L 185.5 402 L 189.5 397 Z " /><path fill="rgb(1,0,1)" stroke="rgb(1,0,1)" stroke-width="1" opacity="0.7843137254901961" d="M 327.5 397 L 328.5 399 L 327.5 397 Z " /><path fill="rgb(1,0,1)" stroke="rgb(1,0,1)" stroke-width="1" opacity="0.7843137254901961" d="M 329.5 400 L 330.5 402 L 329.5 400 Z " /><path fill="rgb(1,0,1)" stroke="rgb(1,0,1)" stroke-width="1" opacity="0.7843137254901961" d="M 245.5 401 L 240.5 407 L 245.5 401 Z " /><path fill="rgb(1,0,1)" stroke="rgb(1,0,1)" stroke-width="1" opacity="0.7843137254901961" d="M 280.5 402 L 281.5 404 L 280.5 402 Z " /><path fill="rgb(1,0,1)" stroke="rgb(1,0,1)" stroke-width="1" opacity="0.7843137254901961" d="M 331.5 403 L 332.5 405 L 331.5 403 Z " /><path fill="rgb(1,0,1)" stroke="rgb(1,0,1)" stroke-width="1" opacity="0.7843137254901961" d="M 282.5 405 L 283.5 407 L 282.5 405 Z " /><path fill="rgb(1,0,1)" stroke="rgb(1,0,1)" stroke-width="1" opacity="0.7843137254901961" d="M 181.5 406 L 176.5 412 L 176 409.5 Q 178.8 411.4 181.5 406 Z " /><path fill="rgb(1,0,1)" stroke="rgb(1,0,1)" stroke-width="1" opacity="0.7843137254901961" d="M 236.5 411 L 232.5 416 L 236.5 411 Z " /><path fill="rgb(1,0,1)" stroke="rgb(1,0,1)" stroke-width="1" opacity="0.7843137254901961" d="M 287.5 413 L 288.5 415 L 287.5 413 Z " /><path fill="rgb(1,0,1)" stroke="rgb(1,0,1)" stroke-width="1" opacity="0.7843137254901961" d="M 338.5 413 L 339.5 415 L 338.5 413 Z " /><path fill="rgb(1,0,1)" stroke="rgb(1,0,1)" stroke-width="1" opacity="0.7843137254901961" d="M 289.5 416 L 290.5 418 L 289.5 416 Z " /><path fill="rgb(1,0,1)" stroke="rgb(1,0,1)" stroke-width="1" opacity="0.7843137254901961" d="M 341.5 417 L 343.5 420 L 341.5 417 Z " /><path fill="rgb(1,0,1)" stroke="rgb(1,0,1)" stroke-width="1" opacity="0.7843137254901961" d="M 291.5 419 L 292.5 421 L 291.5 419 Z " /><path fill="rgb(1,0,1)" stroke="rgb(1,0,1)" stroke-width="1" opacity="0.7843137254901961" d="M 228.5 420 L 223.5 426 L 228.5 420 Z " /><path fill="rgb(1,0,1)" stroke="rgb(1,0,1)" stroke-width="1" opacity="0.7843137254901961" d="M 293.5 422 L 294.5 424 L 293.5 422 Z " /><path fill="rgb(1,0,1)" stroke="rgb(1,0,1)" stroke-width="1" opacity="0.7843137254901961" d="M 345.5 422 L 347.5 425 L 345.5 422 Z " /><path fill="rgb(1,0,1)" stroke="rgb(1,0,1)" stroke-width="1" opacity="0.7843137254901961" d="M 295.5 425 L 296.5 427 L 295.5 425 Z " /><path fill="rgb(1,0,1)" stroke="rgb(1,0,1)" stroke-width="1" opacity="0.7843137254901961" d="M 376.5 426 L 377 428.5 L 376 428.5 L 376.5 426 Z " /><path fill="rgb(1,0,1)" stroke="rgb(1,0,1)" stroke-width="1" opacity="0.7843137254901961" d="M 420.5 426 L 421 428.5 L 420 428.5 L 420.5 426 Z " /><path fill="rgb(1,0,1)" stroke="rgb(1,0,1)" stroke-width="1" opacity="0.7843137254901961" d="M 349.5 427 L 351.5 430 L 349.5 427 Z " /><path fill="rgb(1,0,1)" stroke="rgb(1,0,1)" stroke-width="1" opacity="0.7843137254901961" d="M 297.5 428 L 298.5 430 L 297.5 428 Z " /><path fill="rgb(1,0,1)" stroke="rgb(1,0,1)" stroke-width="1" opacity="0.7843137254901961" d="M 220.5 429 L 215.5 435 L 220.5 429 Z " /><path fill="rgb(1,0,1)" stroke="rgb(1,0,1)" stroke-width="1" opacity="0.7843137254901961" d="M 299.5 431 L 300.5 433 L 299.5 431 Z " /><path fill="rgb(1,0,1)" stroke="rgb(1,0,1)" stroke-width="1" opacity="0.7843137254901961" d="M 421.5 431 L 422 433.5 L 421 433.5 L 421.5 431 Z " /><path fill="rgb(1,0,1)" stroke="rgb(1,0,1)" stroke-width="1" opacity="0.7843137254901961" d="M 301.5 434 L 302.5 436 L 301.5 434 Z " /><path fill="rgb(1,0,1)" stroke="rgb(1,0,1)" stroke-width="1" opacity="0.7843137254901961" d="M 355.5 434 L 362.5 442 L 355.5 434 Z " /><path fill="rgb(1,0,1)" stroke="rgb(1,0,1)" stroke-width="1" opacity="0.7843137254901961" d="M 378.5 436 L 379 439.5 L 378 439.5 L 378.5 436 Z " /><path fill="rgb(1,0,1)" stroke="rgb(1,0,1)" stroke-width="1" opacity="0.7843137254901961" d="M 303.5 437 L 304.5 439 L 303.5 437 Z " /><path fill="rgb(1,0,1)" stroke="rgb(1,0,1)" stroke-width="1" opacity="0.7843137254901961" d="M 422.5 438 L 423 440.5 L 422 440.5 L 422.5 438 Z " /><path fill="rgb(1,0,1)" stroke="rgb(1,0,1)" stroke-width="1" opacity="0.7843137254901961" d="M 211.5 439 L 207.5 444 L 211.5 439 Z " /><path fill="rgb(1,0,1)" stroke="rgb(1,0,1)" stroke-width="1" opacity="0.7843137254901961" d="M 305.5 440 L 307.5 443 L 305.5 440 Z " /><path fill="rgb(1,0,1)" stroke="rgb(1,0,1)" stroke-width="1" opacity="0.7843137254901961" d="M 379.5 443 L 380 448.5 L 379 448.5 L 379.5 443 Z " /><path fill="rgb(1,0,1)" stroke="rgb(1,0,1)" stroke-width="1" opacity="0.7843137254901961" d="M 309.5 445 L 310.5 447 L 309.5 445 Z " /><path fill="rgb(1,0,1)" stroke="rgb(1,0,1)" stroke-width="1" opacity="0.7843137254901961" d="M 367.5 445 L 369.5 448 L 367.5 445 Z " /><path fill="rgb(1,0,1)" stroke="rgb(1,0,1)" stroke-width="1" opacity="0.7843137254901961" d="M 423.5 445 L 424 450.5 L 423 450.5 L 423.5 445 Z " /><path fill="rgb(1,0,1)" stroke="rgb(1,0,1)" stroke-width="1" opacity="0.7843137254901961" d="M 204.5 447 L 201.5 451 L 204.5 447 Z " /><path fill="rgb(1,0,1)" stroke="rgb(1,0,1)" stroke-width="1" opacity="0.7843137254901961" d="M 312.5 449 L 313.5 451 L 312.5 449 Z " /><path fill="rgb(1,0,1)" stroke="rgb(1,0,1)" stroke-width="1" opacity="0.7843137254901961" d="M 372.5 449 L 373.5 451 L 372.5 449 Z " /><path fill="rgb(1,0,1)" stroke="rgb(1,0,1)" stroke-width="1" opacity="0.7843137254901961" d="M 376.5 452 L 377.5 454 L 376.5 452 Z " /><path fill="rgb(1,0,1)" stroke="rgb(1,0,1)" stroke-width="1" opacity="0.7843137254901961" d="M 315.5 453 L 316.5 455 L 315.5 453 Z " /><path fill="rgb(1,0,1)" stroke="rgb(1,0,1)" stroke-width="1" opacity="0.7843137254901961" d="M 198.5 454 L 194.5 459 L 198.5 454 Z " /><path fill="rgb(1,0,1)" stroke="rgb(1,0,1)" stroke-width="1" opacity="0.7843137254901961" d="M 318.5 457 L 320.5 460 L 318.5 457 Z " /><path fill="rgb(1,0,1)" stroke="rgb(1,0,1)" stroke-width="1" opacity="0.7843137254901961" d="M 191.5 462 L 188.5 466 L 191.5 462 Z " /><path fill="rgb(1,0,1)" stroke="rgb(1,0,1)" stroke-width="1" opacity="0.7843137254901961" d="M 323.5 463 L 327.5 468 L 323.5 463 Z " /><path fill="rgb(1,0,1)" stroke="rgb(1,0,1)" stroke-width="1" opacity="0.7843137254901961" d="M 119.5 469 L 120 471.5 L 119 471.5 L 119.5 469 Z " /><path fill="rgb(1,0,1)" stroke="rgb(1,0,1)" stroke-width="1" opacity="0.7843137254901961" d="M 185.5 469 L 181.5 474 L 185.5 469 Z " /><path fill="rgb(1,0,1)" stroke="rgb(1,0,1)" stroke-width="1" opacity="0.7843137254901961" d="M 423.5 472 L 424 477.5 L 423 477.5 L 423.5 472 Z " /><path fill="rgb(1,0,1)" stroke="rgb(1,0,1)" stroke-width="1" opacity="0.7843137254901961" d="M 118.5 475 L 119 478.5 L 118 478.5 L 118.5 475 Z " /><path fill="rgb(1,0,1)" stroke="rgb(1,0,1)" stroke-width="1" opacity="0.7843137254901961" d="M 179.5 476 L 176.5 480 L 179.5 476 Z " /><path fill="rgb(1,0,1)" stroke="rgb(1,0,1)" stroke-width="1" opacity="0.7843137254901961" d="M 337.5 477 L 342.5 483 L 337.5 477 Z " /><path fill="rgb(1,0,1)" stroke="rgb(1,0,1)" stroke-width="1" opacity="0.7843137254901961" d="M 174.5 482 L 171.5 486 L 174.5 482 Z " /><path fill="rgb(1,0,1)" stroke="rgb(1,0,1)" stroke-width="1" opacity="0.7843137254901961" d="M 422.5 482 L 423 484.5 L 422 484.5 L 422.5 482 Z " /><path fill="rgb(1,0,1)" stroke="rgb(1,0,1)" stroke-width="1" opacity="0.7843137254901961" d="M 117.5 483 L 118 487.5 L 117 487.5 L 117.5 483 Z " /><path fill="rgb(1,0,1)" stroke="rgb(1,0,1)" stroke-width="1" opacity="0.7843137254901961" d="M 345.5 484 L 347.5 487 L 345.5 484 Z " /><path fill="rgb(1,0,1)" stroke="rgb(1,0,1)" stroke-width="1" opacity="0.7843137254901961" d="M 421.5 487 L 422 489.5 L 421 489.5 L 421.5 487 Z " /><path fill="rgb(1,0,1)" stroke="rgb(1,0,1)" stroke-width="1" opacity="0.7843137254901961" d="M 350.5 488 L 351.5 490 L 350.5 488 Z " /><path fill="rgb(1,0,1)" stroke="rgb(1,0,1)" stroke-width="1" opacity="0.7843137254901961" d="M 168.5 489 L 166.5 492 L 168.5 489 Z " /><path fill="rgb(1,0,1)" stroke="rgb(1,0,1)" stroke-width="1" opacity="0.7843137254901961" d="M 356.5 492 L 357.5 494 L 356.5 492 Z " /><path fill="rgb(1,0,1)" stroke="rgb(1,0,1)" stroke-width="1" opacity="0.7843137254901961" d="M 117.5 493 L 118 495.5 L 117 495.5 L 117.5 493 Z " /><path fill="rgb(1,0,1)" stroke="rgb(1,0,1)" stroke-width="1" opacity="0.7843137254901961" d="M 359.5 494 L 360.5 496 L 359.5 494 Z " /><path fill="rgb(1,0,1)" stroke="rgb(1,0,1)" stroke-width="1" opacity="0.7843137254901961" d="M 163.5 495 L 160.5 499 L 163.5 495 Z " /><path fill="rgb(1,0,1)" stroke="rgb(1,0,1)" stroke-width="1" opacity="0.7843137254901961" d="M 417.5 500 L 413.5 505 L 417.5 500 Z " /><path fill="rgb(1,0,1)" stroke="rgb(1,0,1)" stroke-width="1" opacity="0.7843137254901961" d="M 120.5 501 L 126.5 508 L 120.5 501 Z " /><path fill="rgb(1,0,1)" stroke="rgb(1,0,1)" stroke-width="1" opacity="0.7843137254901961" d="M 158.5 501 L 155.5 505 L 158.5 501 Z " /><path fill="rgb(1,0,1)" stroke="rgb(1,0,1)" stroke-width="1" opacity="0.7843137254901961" d="M 411.5 505 L 410.5 507 L 411.5 505 Z " /><path fill="rgb(1,0,1)" stroke="rgb(1,0,1)" stroke-width="1" opacity="0.7843137254901961" d="M 152.5 507 L 151.5 509 L 152.5 507 Z " /><path fill="rgb(1,0,1)" stroke="rgb(1,0,1)" stroke-width="1" opacity="0.7843137254901961" d="M 136.5 511 L 145 511.5 L 136.5 512 L 136.5 511 Z " /><path fill="rgb(0,0,0)" stroke="rgb(0,0,0)" stroke-width="1" opacity="0" d="M 0 0 L 264 0.5 Q 253.7 2.2 249 9.5 L 246 16.5 L 246 21.5 L 241 35.5 L 232 70.5 L 217 112.5 Q 207.4 136.4 189.5 152 Q 179.3 160.3 165.5 165 L 116.5 178 L 113.5 180 L 90.5 187 L 43.5 206 L 12.5 216 L 5 222.5 Q -0.4 228.1 1 240.5 Q 3.4 250.1 10.5 255 L 20.5 259 L 30.5 259 L 31.5 260 L 38.5 260 L 55.5 263 L 83.5 271 L 135.5 290 L 143 296.5 L 145 301.5 L 146 314.5 L 147 315.5 L 147 343.5 L 146 344.5 L 145 359.5 L 140 385.5 L 132 413.5 L 119 469.5 L 118 482.5 L 117 483.5 L 117 495.5 Q 119.9 503.6 126.5 508 L 136 511.5 L 0 512 L 0 0 Z " /><path fill="rgb(0,0,0)" stroke="rgb(0,0,0)" stroke-width="1" opacity="0" d="M 275.5 0 L 512 0 L 512 512 L 145 511.5 Q 154.7 509.2 159 501.5 Q 209.8 438.8 264.5 380 L 267 381.5 L 305 440.5 L 323 463.5 L 342.5 483 Q 356.3 495.2 374.5 503 L 381.5 506 L 398.5 510 L 410.5 507 L 418 500.5 L 421 493.5 L 424 477.5 L 424 445.5 L 423 444.5 L 421 426.5 L 415 403.5 L 404 372.5 L 385 327.5 L 377 303 L 406.5 297 L 440.5 285 L 500.5 256 L 506 251.5 Q 511.9 245.4 511 232.5 Q 508.9 223.1 502.5 218 L 493.5 214 L 439.5 201 L 403.5 188 L 366.5 168 Q 352 158.5 341 145.5 Q 330.5 132 323 115.5 L 308 73.5 L 298 35.5 L 292 19.5 L 291 12.5 L 282.5 3 L 275.5 1 L 275.5 0 Z " /><path fill="rgb(0,0,0)" stroke="rgb(0,0,0)" stroke-width="1" opacity="0" d="M 269.5 96 Q 278.3 127.7 293 153.5 Q 305.7 175.8 324.5 192 Q 365 226.2 423 242 Q 424.3 245 420.5 244 L 409.5 249 L 382.5 257 L 365.5 260 L 343.5 261 Q 334.4 262.9 330 269.5 L 327 274.5 L 325 284.5 L 332 311.5 L 357 370.5 L 373 413.5 L 378 433.5 L 380 454 Q 363.7 445.1 352 430.5 L 325 393.5 L 291 338.5 L 278.5 324 L 274.5 322 L 266.5 321 Q 265.3 323.3 260.5 322 L 254.5 325 L 243 336.5 L 177.5 410 L 177 407.5 L 185 376.5 L 190 347.5 L 190 337.5 L 191 336.5 L 191 301.5 L 186 274.5 L 177.5 263 L 162.5 254 L 104 231.5 L 107.5 229 L 136.5 219 L 150.5 216 L 192.5 203 Q 210 196 222 183.5 Q 235.9 168.9 246 150.5 L 256 130.5 L 269.5 96 Z " /><path fill="rgb(1,0,2)" stroke="rgb(1,0,2)" stroke-width="1" opacity="0.996078431372549" d="M 267.5 0 L 270 0.5 L 267.5 1 L 267.5 0 Z " /><path fill="rgb(1,0,2)" stroke="rgb(1,0,2)" stroke-width="1" opacity="0.996078431372549" d="M 284.5 5 L 287.5 9 L 284.5 5 Z " /><path fill="rgb(1,0,2)" stroke="rgb(1,0,2)" stroke-width="1" opacity="0.996078431372549" d="M 200.5 141 L 199.5 143 L 200.5 141 Z " /><path fill="rgb(1,0,2)" stroke="rgb(1,0,2)" stroke-width="1" opacity="0.996078431372549" d="M 341.5 146 L 342.5 148 L 341.5 146 Z " /><path fill="rgb(1,0,2)" stroke="rgb(1,0,2)" stroke-width="1" opacity="0.996078431372549" d="M 299.5 162 L 300.5 164 L 299.5 162 Z " /><path fill="rgb(1,0,2)" stroke="rgb(1,0,2)" stroke-width="1" opacity="0.996078431372549" d="M 233.5 168 L 232.5 170 L 233.5 168 Z " /><path fill="rgb(1,0,2)" stroke="rgb(1,0,2)" stroke-width="1" opacity="0.996078431372549" d="M 309.5 175 L 310.5 177 L 309.5 175 Z " /><path fill="rgb(1,0,2)" stroke="rgb(1,0,2)" stroke-width="1" opacity="0.996078431372549" d="M 225.5 178 L 221.5 183 L 225.5 178 Z " /><path fill="rgb(1,0,2)" stroke="rgb(1,0,2)" stroke-width="1" opacity="0.996078431372549" d="M 217.5 186 L 216.5 188 L 217.5 186 Z " /><path fill="rgb(1,0,2)" stroke="rgb(1,0,2)" stroke-width="1" opacity="0.996078431372549" d="M 325.5 191 L 326.5 193 L 325.5 191 Z " /><path fill="rgb(1,0,2)" stroke="rgb(1,0,2)" stroke-width="1" opacity="0.996078431372549" d="M 330.5 195 L 331.5 197 L 330.5 195 Z " /><path fill="rgb(1,0,2)" stroke="rgb(1,0,2)" stroke-width="1" opacity="0.996078431372549" d="M 335.5 199 L 336.5 201 L 335.5 199 Z " /><path fill="rgb(1,0,2)" stroke="rgb(1,0,2)" stroke-width="1" opacity="0.996078431372549" d="M 175.5 262 L 176.5 264 L 175.5 262 Z " /><path fill="rgb(1,0,2)" stroke="rgb(1,0,2)" stroke-width="1" opacity="0.996078431372549" d="M 147.5 320 L 148 323.5 L 147 323.5 L 147.5 320 Z " /><path fill="rgb(1,0,2)" stroke="rgb(1,0,2)" stroke-width="1" opacity="0.996078431372549" d="M 279.5 325 L 283.5 330 L 279.5 325 Z " /><path fill="rgb(1,0,2)" stroke="rgb(1,0,2)" stroke-width="1" opacity="0.996078431372549" d="M 252.5 327 L 249.5 331 L 252.5 327 Z " /><path fill="rgb(1,0,2)" stroke="rgb(1,0,2)" stroke-width="1" opacity="0.996078431372549" d="M 147.5 335 L 148 337.5 L 147 337.5 L 147.5 335 Z " /><path fill="rgb(1,0,2)" stroke="rgb(1,0,2)" stroke-width="1" opacity="0.996078431372549" d="M 243.5 337 L 240.5 341 L 243.5 337 Z " /><path fill="rgb(1,0,2)" stroke="rgb(1,0,2)" stroke-width="1" opacity="0.996078431372549" d="M 234.5 347 L 231.5 351 L 234.5 347 Z " /><path fill="rgb(1,0,2)" stroke="rgb(1,0,2)" stroke-width="1" opacity="0.996078431372549" d="M 225.5 357 L 222.5 361 L 225.5 357 Z " /><path fill="rgb(1,0,2)" stroke="rgb(1,0,2)" stroke-width="1" opacity="0.996078431372549" d="M 216.5 367 L 213.5 371 L 216.5 367 Z " /><path fill="rgb(1,0,2)" stroke="rgb(1,0,2)" stroke-width="1" opacity="0.996078431372549" d="M 208.5 376 L 206.5 379 L 208.5 376 Z " /><path fill="rgb(1,0,2)" stroke="rgb(1,0,2)" stroke-width="1" opacity="0.996078431372549" d="M 264.5 379 L 262.5 382 L 264.5 379 Z " /><path fill="rgb(1,0,2)" stroke="rgb(1,0,2)" stroke-width="1" opacity="0.996078431372549" d="M 200.5 385 L 198.5 388 L 200.5 385 Z " /><path fill="rgb(1,0,2)" stroke="rgb(1,0,2)" stroke-width="1" opacity="0.996078431372549" d="M 256.5 388 L 253.5 392 L 256.5 388 Z " /><path fill="rgb(1,0,2)" stroke="rgb(1,0,2)" stroke-width="1" opacity="0.996078431372549" d="M 192.5 394 L 190.5 397 L 192.5 394 Z " /><path fill="rgb(1,0,2)" stroke="rgb(1,0,2)" stroke-width="1" opacity="0.996078431372549" d="M 247.5 398 L 245.5 401 L 247.5 398 Z " /><path fill="rgb(1,0,2)" stroke="rgb(1,0,2)" stroke-width="1" opacity="0.996078431372549" d="M 184.5 403 L 182.5 406 L 184.5 403 Z " /><path fill="rgb(1,0,2)" stroke="rgb(1,0,2)" stroke-width="1" opacity="0.996078431372549" d="M 239.5 407 L 237.5 410 L 239.5 407 Z " /><path fill="rgb(1,0,2)" stroke="rgb(1,0,2)" stroke-width="1" opacity="0.996078431372549" d="M 231.5 416 L 228.5 420 L 231.5 416 Z " /><path fill="rgb(1,0,2)" stroke="rgb(1,0,2)" stroke-width="1" opacity="0.996078431372549" d="M 343.5 420 L 344.5 422 L 343.5 420 Z " /><path fill="rgb(1,0,2)" stroke="rgb(1,0,2)" stroke-width="1" opacity="0.996078431372549" d="M 347.5 425 L 348.5 427 L 347.5 425 Z " /><path fill="rgb(1,0,2)" stroke="rgb(1,0,2)" stroke-width="1" opacity="0.996078431372549" d="M 222.5 426 L 220.5 429 L 222.5 426 Z " /><path fill="rgb(1,0,2)" stroke="rgb(1,0,2)" stroke-width="1" opacity="0.996078431372549" d="M 351.5 430 L 354.5 434 L 351.5 430 Z " /><path fill="rgb(1,0,2)" stroke="rgb(1,0,2)" stroke-width="1" opacity="0.996078431372549" d="M 214.5 435 L 212.5 438 L 214.5 435 Z " /><path fill="rgb(1,0,2)" stroke="rgb(1,0,2)" stroke-width="1" opacity="0.996078431372549" d="M 363.5 442 L 365.5 445 L 363.5 442 Z " /><path fill="rgb(1,0,2)" stroke="rgb(1,0,2)" stroke-width="1" opacity="0.996078431372549" d="M 206.5 444 L 205.5 446 L 206.5 444 Z " /><path fill="rgb(1,0,2)" stroke="rgb(1,0,2)" stroke-width="1" opacity="0.996078431372549" d="M 370.5 448 L 371.5 450 L 370.5 448 Z " /><path fill="rgb(1,0,2)" stroke="rgb(1,0,2)" stroke-width="1" opacity="0.996078431372549" d="M 200.5 451 L 198.5 454 L 200.5 451 Z " /><path fill="rgb(1,0,2)" stroke="rgb(1,0,2)" stroke-width="1" opacity="0.996078431372549" d="M 193.5 459 L 192.5 461 L 193.5 459 Z " /><path fill="rgb(1,0,2)" stroke="rgb(1,0,2)" stroke-width="1" opacity="0.996078431372549" d="M 321.5 460 L 322.5 462 L 321.5 460 Z " /><path fill="rgb(1,0,2)" stroke="rgb(1,0,2)" stroke-width="1" opacity="0.996078431372549" d="M 187.5 466 L 185.5 469 L 187.5 466 Z " /><path fill="rgb(1,0,2)" stroke="rgb(1,0,2)" stroke-width="1" opacity="0.996078431372549" d="M 328.5 468 L 336.5 477 L 328.5 468 Z " /><path fill="rgb(1,0,2)" stroke="rgb(1,0,2)" stroke-width="1" opacity="0.996078431372549" d="M 180.5 474 L 179.5 476 L 180.5 474 Z " /><path fill="rgb(1,0,2)" stroke="rgb(1,0,2)" stroke-width="1" opacity="0.996078431372549" d="M 175.5 480 L 174.5 482 L 175.5 480 Z " /><path fill="rgb(1,0,2)" stroke="rgb(1,0,2)" stroke-width="1" opacity="0.996078431372549" d="M 170.5 486 L 169.5 488 L 170.5 486 Z " /><path fill="rgb(1,0,2)" stroke="rgb(1,0,2)" stroke-width="1" opacity="0.996078431372549" d="M 348.5 486 L 349.5 488 L 348.5 486 Z " /><path fill="rgb(1,0,2)" stroke="rgb(1,0,2)" stroke-width="1" opacity="0.996078431372549" d="M 165.5 492 L 163.5 495 L 165.5 492 Z " /><path fill="rgb(1,0,2)" stroke="rgb(1,0,2)" stroke-width="1" opacity="0.996078431372549" d="M 159.5 499 L 158.5 501 L 159.5 499 Z " /><path fill="rgb(1,0,2)" stroke="rgb(1,0,2)" stroke-width="1" opacity="0.996078431372549" d="M 154.5 505 L 153.5 507 L 154.5 505 Z " /><path fill="rgb(1,0,2)" stroke="rgb(1,0,2)" stroke-width="1" opacity="1" d="M 263.5 1 Q 283 -1 289 10.5 L 297 34.5 L 312 88.5 L 321 112.5 Q 332.3 140.7 353.5 159 Q 374.7 176.3 401.5 188 L 440.5 202 L 494.5 215 Q 502.1 216.9 506 222.5 L 510 231.5 L 510 241.5 Q 508.6 249 503.5 253 Q 470.5 272 433.5 287 L 407.5 296 L 376 303 L 385 329.5 L 404 374.5 L 416 409.5 L 423 442.5 L 424 470.5 L 423 471.5 L 423 480.5 L 421 491.5 Q 419.3 499.8 413.5 504 Q 407.7 509.7 395.5 509 Q 372.2 503.8 355.5 492 Q 337 479.5 323 462.5 L 306 440.5 L 265.5 379 L 262 381.5 L 150.5 509 Q 145.8 512.8 135.5 511 Q 125.3 508.3 120 500.5 L 117 489.5 L 118 488.5 L 119 473.5 L 124 447.5 L 136 404.5 L 145 363.5 L 146 350.5 L 147 349.5 L 147 338.5 L 148 337.5 L 148 320.5 L 147 319.5 L 146 302.5 Q 144.2 294.9 138.5 291 L 127.5 286 L 66.5 265 L 43.5 260 L 18.5 258 Q 10.5 255.5 6 249.5 L 3 244.5 L 1 235.5 Q 3.2 234.3 2 229.5 L 5 223.5 L 9.5 219 L 14.5 216 L 45.5 206 L 92.5 187 L 119.5 178 L 152.5 170 L 167.5 165 L 185.5 156 L 201 141.5 L 212 124.5 L 225 94.5 L 247 20.5 L 247 15.5 Q 249.3 8.8 254.5 5 L 263.5 1 Z M 268 95 L 260 120 L 249 144 Q 237 166 221 184 Q 208 196 191 203 L 152 215 L 138 218 L 105 230 Q 102 229 103 232 L 159 253 L 178 264 Q 185 269 187 280 L 187 285 L 190 297 L 190 309 L 191 310 L 191 330 L 190 331 L 190 342 L 189 343 L 188 357 L 183 383 L 176 410 Q 175 413 178 412 L 178 411 L 244 337 L 256 325 L 264 322 Q 274 321 279 325 L 293 343 L 326 397 L 351 431 Q 363 444 379 455 L 381 455 L 380 454 L 379 436 L 374 415 Q 359 369 339 329 L 331 307 L 326 288 L 326 280 L 330 271 Q 335 265 343 262 L 363 261 L 386 257 L 412 249 L 423 244 Q 426 245 425 242 Q 389 232 359 215 L 325 191 Q 305 174 292 151 Q 279 126 270 97 Q 271 94 268 95 Z " /></svg>